<svg xmlns="http://www.w3.org/2000/svg" xmlns:xlink="http://www.w3.org/1999/xlink" width="221.291" height="72.212" viewBox="0 0 221.291 72.212">
  <defs>
    <clipPath id="clip-path">
      <rect id="Rectangle_1" data-name="Rectangle 1" width="221.291" height="72.212" fill="#fff"/>
    </clipPath>
  </defs>
  <g id="Group_2" data-name="Group 2" transform="translate(24.584 8.933)">
    <g id="Group_1" data-name="Group 1" transform="translate(-24.584 -8.933)" clip-path="url(#clip-path)">
      <g id="Group_6" data-name="Group 6" transform="translate(0 0)">
        <path id="Path_1" data-name="Path 1" d="M105.262,49.195c0,14.931-10.879,26.983-24.317,26.983S56.631,64.125,56.631,49.195,67.51,22.212,80.946,22.212s24.317,12.052,24.317,26.983m-16.1,0c0-17.6-2.879-26.343-8.213-26.343S72.628,31.6,72.628,49.195c0,17.49,2.986,26.343,8.318,26.343s8.213-8.853,8.213-26.343" transform="translate(-56.631 -22.212)" fill="#fff"/>
        <path id="Path_2" data-name="Path 2" d="M112.759,26.826a5.216,5.216,0,1,1-10.431,0c0-.875.2-1.211.2-1.75a.941.941,0,0,0-1.077-1.009,6.341,6.341,0,0,0-2.558.807V52.331a3.387,3.387,0,0,0,2.76,3.3v.4H86.042v-.4a3.387,3.387,0,0,0,2.759-3.3V28.373a3.335,3.335,0,0,0-2.759-3.3v-.4L97.55,22.989h.2A1.135,1.135,0,0,1,98.9,24.134v.335c2.424-1.279,5.99-2.961,8.614-2.826a5.333,5.333,0,0,1,5.25,5.182" transform="translate(-33.378 -2.404)" fill="#fff"/>
        <path id="Path_3" data-name="Path 3" d="M114.279,30.317a3.335,3.335,0,0,0-2.759-3.3v-.4l11.508-1.682h.2a1.1,1.1,0,0,1,1.144,1.144v28.2a3.389,3.389,0,0,0,2.76,3.3v.4H111.52v-.4a3.389,3.389,0,0,0,2.759-3.3Zm5.048-9.018a5.216,5.216,0,0,1,0-10.431,5.216,5.216,0,1,1,0,10.431" transform="translate(-28.779 -4.348)" fill="#fff"/>
        <path id="Path_4" data-name="Path 4" d="M163.282,62.351c0,6.594-5.115,11.91-11.306,11.91-5.182,0-9.894-3.5-9.894-7.6a5.257,5.257,0,0,1,5.25-5.25,5.283,5.283,0,0,1,3.7,8.951,3.445,3.445,0,0,0-1.143,2.086c0,1.078.74,1.414,2.086,1.414,5.99,0,10.9-5.115,10.9-11.508a8.423,8.423,0,0,0-8.211-8.614c-7.941,0-11.1,12.181-19.314,12.181a8.827,8.827,0,0,1-8.614-9.085,9,9,0,0,1,6.191-8.682,14.068,14.068,0,0,1-3.3-9.085A15.057,15.057,0,0,1,144.977,24.26a15.85,15.85,0,0,1,6.461,1.347c-2.222-2.019-5.048-5.519-5.048-9.489a5.256,5.256,0,0,1,5.25-5.25,5.2,5.2,0,0,1,5.181,5.25,5.494,5.494,0,0,1-3.432,4.912c-1.48.606-2.288,1.548-2.288,2.558,0,1.143,1.077,2.288,2.422,3.163a14.482,14.482,0,0,1,.875,23.957,11.914,11.914,0,0,1,8.883,11.643M135.353,56.7c2.49,0,4.979-1.48,7.672-2.961a15.808,15.808,0,0,1-9.893-5.317,4.435,4.435,0,0,0,2.221,8.278m5.9-21.35c-5.949,5.949-8.327,10.326-7.186,12.9a26.852,26.852,0,0,1,4.664,1.618c2.522-.714,5.853-3.094,9.9-7.139,6.8-6.8,8.9-11.468,6.472-13.895-2.38-2.38-7.043-.286-13.847,6.519" transform="translate(-26.032 -4.348)" fill="#fff"/>
        <path id="Path_5" data-name="Path 5" d="M162.443,30.317a3.335,3.335,0,0,0-2.759-3.3v-.4l11.508-1.682h.2a1.1,1.1,0,0,1,1.144,1.144v28.2a3.389,3.389,0,0,0,2.76,3.3v.4H159.684v-.4a3.389,3.389,0,0,0,2.759-3.3Zm5.048-9.018a5.216,5.216,0,0,1,0-10.431,5.216,5.216,0,1,1,0,10.431" transform="translate(-20.084 -4.348)" fill="#fff"/>
        <path id="Path_6" data-name="Path 6" d="M199.716,25.58c0-1.48-1.884-2.356-4.576-2.356a15.269,15.269,0,0,0-6.528,1.549V52.231a3.389,3.389,0,0,0,2.759,3.3v.4H175.759v-.4a3.389,3.389,0,0,0,2.759-3.3V28.272a3.335,3.335,0,0,0-2.759-3.3v-.4l11.508-1.682h.2a1.1,1.1,0,0,1,1.144,1.144V24.3c6.191-3.1,17.7-4.24,17.7,7.133v20.8a3.39,3.39,0,0,0,2.76,3.3v.4H193.457v-.4a3.39,3.39,0,0,0,2.76-3.3" transform="translate(-17.183 -2.303)" fill="#fff"/>
        <path id="Path_7" data-name="Path 7" d="M220.052,56.265c-6.864,0-12.652-3.768-12.652-8.749a5.216,5.216,0,0,1,10.431,0c0,3.634-3.164,4.173-3.164,5.921,0,1.009,1.145,2.02,2.491,2.222a16.583,16.583,0,0,0,2.893.2,4.367,4.367,0,0,0,4.375-4.374c0-6.731-18.1-12.04-17.026-21.4.639-5.6,6.392-7.874,11.373-7.874,4.845,0,6.864,1.884,9.758,1.683a2.807,2.807,0,0,0,1.682-.74h.336v10.9h-.336c-.807-4.039-2.759-10.431-9.287-11.307-2.355-.335-4.239.943-4.441,3.769-.539,7.134,16.254,11.069,16.285,20.324.019,5.639-5.72,9.422-12.719,9.422" transform="translate(-11.479 -2.3)" fill="#fff"/>
      </g>
    </g>
  </g>
</svg>
