<svg xmlns="http://www.w3.org/2000/svg" width="18.516" height="18.516" viewBox="0 0 18.516 18.516">
  <g id="Group_200" data-name="Group 200" transform="translate(0 0)">
    <path id="Path_31" data-name="Path 31" d="M2137.031,303.763h-7.484a5.522,5.522,0,0,0-5.516,5.516v7.484a5.523,5.523,0,0,0,5.516,5.516h7.484a5.522,5.522,0,0,0,5.516-5.516v-7.484A5.522,5.522,0,0,0,2137.031,303.763Zm3.653,13a3.653,3.653,0,0,1-3.653,3.653h-7.484a3.653,3.653,0,0,1-3.653-3.653v-7.484a3.653,3.653,0,0,1,3.653-3.653h7.484a3.653,3.653,0,0,1,3.653,3.653v7.484Z" transform="translate(-2124.031 -303.763)" fill="#fff"/>
    <path id="Path_32" data-name="Path 32" d="M2188.5,363.445a4.789,4.789,0,1,0,4.789,4.789A4.794,4.794,0,0,0,2188.5,363.445Zm0,7.715a2.926,2.926,0,1,1,2.926-2.926A2.926,2.926,0,0,1,2188.5,371.16Z" transform="translate(-2179.244 -358.976)" fill="#fff"/>
    <circle id="Ellipse_5" data-name="Ellipse 5" cx="1.147" cy="1.147" r="1.147" transform="translate(12.908 3.357)" fill="#fff"/>
  </g>
</svg>