<svg xmlns="http://www.w3.org/2000/svg" width="23.024" height="18.707" viewBox="0 0 23.024 18.707">
  <path id="Path_35" data-name="Path 35" d="M3051.6,336.877a9.84,9.84,0,0,1-2.719.745,4.692,4.692,0,0,0,2.076-2.609,9.434,9.434,0,0,1-2.993,1.143,4.72,4.72,0,0,0-8.165,3.228,4.837,4.837,0,0,0,.11,1.076,13.362,13.362,0,0,1-9.73-4.937,4.722,4.722,0,0,0,1.451,6.309,4.655,4.655,0,0,1-2.132-.581v.052a4.742,4.742,0,0,0,3.781,4.638,4.711,4.711,0,0,1-1.238.155,4.165,4.165,0,0,1-.893-.081,4.764,4.764,0,0,0,4.41,3.288,9.483,9.483,0,0,1-5.852,2.013,8.839,8.839,0,0,1-1.13-.065,13.435,13.435,0,0,0,20.676-11.314c0-.209-.007-.41-.017-.61A9.422,9.422,0,0,0,3051.6,336.877Z" transform="translate(-3028.579 -334.662)" fill="#fff"/>
</svg>
