<svg xmlns="http://www.w3.org/2000/svg" width="22.508" height="18.482" viewBox="0 0 22.508 18.482">
  <path id="Vector" d="M16.146,18.482H4.469A4.609,4.609,0,0,1,0,13.771,4.578,4.578,0,0,1,3.5,9.208,7.079,7.079,0,0,1,5.109,2.336,7.751,7.751,0,0,1,12.841.322a7.164,7.164,0,0,1,4.815,5.592,6.224,6.224,0,0,1,4.553,4.354,6.177,6.177,0,0,1-1.762,6.557A6.429,6.429,0,0,1,16.146,18.482ZM4.49,10.634H4.469a3.022,3.022,0,0,0-2.906,3.137,3.03,3.03,0,0,0,2.948,3.137H16.093a4.97,4.97,0,0,0,3.284-1.259,4.66,4.66,0,0,0,1.311-4.92A4.641,4.641,0,0,0,16.88,7.372a.79.79,0,0,1-.682-.65,5.7,5.7,0,0,0-3.829-4.889A6.169,6.169,0,0,0,6.242,3.427,5.6,5.6,0,0,0,5.1,9.113a4.758,4.758,0,0,1,1.521.472.788.788,0,0,1-.713,1.406,3.021,3.021,0,0,0-1.374-.336C4.522,10.634,4.511,10.634,4.49,10.634Z" fill="#535446"/>
</svg>
