<svg id="Group_353" data-name="Group 353" xmlns="http://www.w3.org/2000/svg" xmlns:xlink="http://www.w3.org/1999/xlink" width="22.508" height="33.95" viewBox="0 0 22.508 33.95">
  <defs>
    <clipPath id="clip-path">
      <rect id="Rectangle_66" data-name="Rectangle 66" width="22.508" height="33.95" fill="#535446"/>
    </clipPath>
  </defs>
  <g id="Group_352" data-name="Group 352" transform="translate(0 0)" clip-path="url(#clip-path)">
    <path id="Path_141" data-name="Path 141" d="M10.313,8.689c-4.538-1.9-7.5,1.02-6.662,5.2-2.036.545-3.56,1.7-3.646,3.96-.1,2.514,1.6,3.731,3.744,4.369-.6,3.27.069,4.373,3.562,6.038A3.963,3.963,0,0,0,8.767,33.1a3.962,3.962,0,0,0,4.5.283c2.11-1.184,2.532-3.075,1.956-5.25C18.5,26.9,19.1,25.88,18.844,22.091a4.088,4.088,0,0,0,3.661-4.079c.084-2.486-1.829-3.452-3.833-4.262a3.986,3.986,0,0,0-1.45-4.921c-1.649-1.214-3.411-.818-5.145-.05A7.688,7.688,0,0,1,12.1,7.356a2.954,2.954,0,0,1,.855-2.2,4.751,4.751,0,0,1,2.451-1.2,13.711,13.711,0,0,1,3.1.011A5.482,5.482,0,0,0,20,3.913a.767.767,0,0,0,.566-.411c-.02-.37-.178-.638-1.076-.624-2.722.042-5.225-.611-7.647,1.578C10.873,1.153,8.562.111,5.6,0,4.521-.038,4.17.4,4.146,1.461,4.072,4.75,5.659,7,8.9,7.459a10.344,10.344,0,0,0,1.521-.011M5.718,1.5c3.272.08,4.577,1.342,4.706,4.444-2.9.592-4.892-1.228-4.706-4.444m9.063,7.951a2.743,2.743,0,0,1,2.778,2.6,2.848,2.848,0,0,1-2.813,2.775A2.818,2.818,0,0,1,11.982,12a2.723,2.723,0,0,1,2.8-2.555m-3.4,5.884a2.815,2.815,0,0,1,2.67,2.764,2.878,2.878,0,0,1-2.84,2.62,2.812,2.812,0,0,1-2.746-2.872,2.829,2.829,0,0,1,2.916-2.512M7.84,9.448a2.749,2.749,0,0,1,2.684,2.695,2.847,2.847,0,0,1-2.912,2.678,2.861,2.861,0,0,1-2.691-2.73A2.787,2.787,0,0,1,7.84,9.448m-3.7,11.271a2.876,2.876,0,0,1-2.754-2.673,2.864,2.864,0,0,1,2.7-2.714,2.791,2.791,0,0,1,2.9,2.659,2.812,2.812,0,0,1-2.847,2.727m3.493,5.866a2.762,2.762,0,0,1-2.713-2.661,2.86,2.86,0,0,1,2.894-2.7,2.825,2.825,0,0,1,2.71,2.7,2.774,2.774,0,0,1-2.891,2.668m3.434,5.937a2.691,2.691,0,1,1,2.983-2.6,2.849,2.849,0,0,1-2.983,2.6m3.7-5.942a2.727,2.727,0,0,1-2.8-2.785,2.8,2.8,0,0,1,5.588.154,2.728,2.728,0,0,1-2.787,2.631m3.349-5.874A2.8,2.8,0,0,1,15.5,17.894a2.808,2.808,0,0,1,2.863-2.565,2.693,2.693,0,1,1-.24,5.377" transform="translate(0 0)" fill="#535446"/>
  </g>
</svg>
