<svg xmlns="http://www.w3.org/2000/svg" xmlns:xlink="http://www.w3.org/1999/xlink" width="303.176" height="98.933" viewBox="0 0 303.176 98.933">
  <defs>
    <clipPath id="clip-path">
      <rect id="Rectangle_1" data-name="Rectangle 1" width="303.176" height="98.933" transform="translate(-24.584 -8.933)" fill="none"/>
    </clipPath>
  </defs>
  <g id="Group_2" data-name="Group 2" transform="translate(24.584 8.933)">
    <g id="Group_1" data-name="Group 1" transform="translate(0 0)" clip-path="url(#clip-path)">
      <g id="Group_6" data-name="Group 6" transform="translate(-78.937 -15.148)">
        <path id="Path_1" data-name="Path 1" d="M123.258,59.179c0,20.456-14.9,36.967-33.315,36.967S56.631,79.635,56.631,59.179s14.9-36.967,33.312-36.967,33.315,16.511,33.315,36.967m-22.063,0c0-24.108-3.945-36.09-11.252-36.09s-11.4,11.982-11.4,36.09c0,23.962,4.091,36.09,11.4,36.09s11.252-12.128,11.252-36.09" transform="translate(-2.278 -15.997)" fill="#1a1818"/>
        <path id="Path_2" data-name="Path 2" d="M122.646,28.746a7.146,7.146,0,1,1-14.291,0c0-1.2.277-1.659.277-2.4a1.289,1.289,0,0,0-1.475-1.383,8.687,8.687,0,0,0-3.5,1.106V63.689a4.64,4.64,0,0,0,3.781,4.517v.555H86.042v-.555a4.64,4.64,0,0,0,3.78-4.517V30.866a4.568,4.568,0,0,0-3.78-4.517V25.8l15.766-2.306h.277a1.555,1.555,0,0,1,1.567,1.569v.459c3.32-1.752,8.206-4.056,11.8-3.872a7.306,7.306,0,0,1,7.192,7.1" transform="translate(40.462 10.928)" fill="#1a1818"/>
        <path id="Path_3" data-name="Path 3" d="M115.3,37.514A4.568,4.568,0,0,0,111.52,33v-.553l15.766-2.3h.277a1.5,1.5,0,0,1,1.567,1.567V70.338a4.643,4.643,0,0,0,3.781,4.517v.553H111.52v-.553a4.643,4.643,0,0,0,3.78-4.517Zm6.916-12.355a7.146,7.146,0,0,1,0-14.291,7.146,7.146,0,1,1,0,14.291" transform="translate(56.191 4.28)" fill="#1a1818"/>
        <path id="Path_4" data-name="Path 4" d="M176.8,81.4c0,9.034-7.008,16.317-15.489,16.317-7.1,0-13.555-4.792-13.555-10.417a7.2,7.2,0,0,1,7.192-7.192,7.238,7.238,0,0,1,5.07,12.263,4.719,4.719,0,0,0-1.566,2.858c0,1.477,1.014,1.938,2.858,1.938,8.206,0,14.936-7.008,14.936-15.766A11.54,11.54,0,0,0,165,69.6c-10.88,0-15.213,16.688-26.461,16.688-6.547,0-11.8-5.533-11.8-12.447a12.327,12.327,0,0,1,8.481-11.894A19.274,19.274,0,0,1,130.7,49.5c0-11.249,9.4-20.285,21.021-20.285a21.715,21.715,0,0,1,8.852,1.845c-3.044-2.766-6.916-7.561-6.916-13a7.2,7.2,0,0,1,7.192-7.192,7.122,7.122,0,0,1,7.1,7.192,7.526,7.526,0,0,1-4.7,6.73c-2.028.83-3.134,2.12-3.134,3.5,0,1.566,1.475,3.134,3.319,4.333a19.841,19.841,0,0,1,1.2,32.822A16.322,16.322,0,0,1,176.8,81.4m-38.263-7.745c3.411,0,6.822-2.028,10.511-4.056A21.657,21.657,0,0,1,135.5,62.316a6.076,6.076,0,0,0,3.042,11.341m8.08-29.25c-8.15,8.15-11.409,14.147-9.845,17.668a36.789,36.789,0,0,1,6.39,2.217c3.455-.978,8.019-4.239,13.56-9.78,9.322-9.322,12.191-15.711,8.866-19.036-3.261-3.261-9.649-.391-18.971,8.931" transform="translate(65.586 4.28)" fill="#1a1818"/>
        <path id="Path_5" data-name="Path 5" d="M163.464,37.514A4.568,4.568,0,0,0,159.684,33v-.553l15.766-2.3h.277a1.5,1.5,0,0,1,1.567,1.567V70.338a4.643,4.643,0,0,0,3.781,4.517v.553H159.684v-.553a4.643,4.643,0,0,0,3.78-4.517Zm6.916-12.355a7.146,7.146,0,0,1,0-14.291,7.146,7.146,0,1,1,0,14.291" transform="translate(85.925 4.28)" fill="#1a1818"/>
        <path id="Path_6" data-name="Path 6" d="M208.581,26.833c0-2.028-2.581-3.228-6.269-3.228a20.919,20.919,0,0,0-8.944,2.122V63.344a4.643,4.643,0,0,0,3.78,4.517v.553H175.759v-.553a4.643,4.643,0,0,0,3.78-4.517V30.52A4.568,4.568,0,0,0,175.759,26V25.45l15.766-2.3h.277a1.5,1.5,0,0,1,1.567,1.567v.369c8.481-4.242,24.247-5.809,24.247,9.772V63.344a4.644,4.644,0,0,0,3.781,4.517v.553H200.006v-.553a4.644,4.644,0,0,0,3.781-4.517" transform="translate(95.849 11.274)" fill="#1a1818"/>
        <path id="Path_7" data-name="Path 7" d="M224.75,68.866c-9.4,0-17.333-5.163-17.333-11.986a7.146,7.146,0,0,1,14.291,0c0,4.978-4.334,5.717-4.334,8.113,0,1.383,1.569,2.767,3.413,3.044a22.72,22.72,0,0,0,3.964.277,5.983,5.983,0,0,0,5.994-5.992c0-9.222-24.792-16.5-23.327-29.321.875-7.674,8.758-10.788,15.581-10.788,6.638,0,9.4,2.581,13.369,2.306a3.846,3.846,0,0,0,2.3-1.014h.461V38.44h-.461c-1.106-5.533-3.78-14.291-12.724-15.491-3.227-.459-5.808,1.292-6.084,5.164-.739,9.774,22.269,15.164,22.311,27.844.026,7.726-7.836,12.908-17.425,12.908" transform="translate(115.354 11.283)" fill="#1a1818"/>
      </g>
    </g>
  </g>
</svg>
