<svg xmlns="http://www.w3.org/2000/svg" xmlns:xlink="http://www.w3.org/1999/xlink" width="977.547" height="915" viewBox="0 0 977.547 915">
  <defs>
    <clipPath id="clip-path">
      <rect id="Rectangle_126" data-name="Rectangle 126" width="976.864" height="915" fill="#cfd3b8"/>
    </clipPath>
  </defs>
  <g id="Group_1767" data-name="Group 1767" transform="translate(-140 -2524)">
    <path id="Path_302" data-name="Path 302" d="M332.834,339.719a8.837,8.837,0,0,0-4.721-2.816c-7.951-1.9-11.248-2-13.8,0-2.534,2.021-9.641,5.317-15.273,5.516-5.616.215-14.643,3.4-18.453,6.262-3.826,2.866-9.442,7.852-19.1,11.148-4.555,1.806-3.926.315-4.555-1.922-.646-2.22-5.847.331-6.792,1.276-.961.961-9.873,1.59-12.523,2.766-2.65,1.16-11.347.53-11.662-.745-.331-1.275-.116-11.993-3.18-11.778a2.151,2.151,0,0,0-.547.116.81.81,0,0,0-.182.066,5.723,5.723,0,0,0-1.789-1.044c-.1-.033-.2-.083-.315-.116a2.341,2.341,0,0,0-.364-.1c-3.048-.911-7.189-.679-8.829-.679a.323.323,0,0,1-.133-.017c-2.12-.232-.729-6.245,1.193-7.206,1.971-.961,3.048-4.39.894-7.255-2.137-2.866-1.242-4.655,1.259-9.094s.182-6.278-1.607-12.722c-1.391-5.019-5.881-7.106-7.8-7.786-.05-.017-.116-.033-.166-.05a1.534,1.534,0,0,0-.215-.066c-.315-.1-.5-.149-.5-.149-.845,1.226-1.425,2.22-1.425,2.22s-.547,0-1.226,2.12c-.5,1.574.514,1.706-.944,1.623-.48-.033-1.242-.083-2.419-.1-4.688-.083-5.168,1.259-8.051,1.259s-3.843.563-6.908,1.723c-3.065,1.143-18.6.48-18.6.48s-1.126-9.558,4.771-12.639c5.9-3.1,2.534-6.179,1.093-8.514-1.425-2.319-7.885-3.147-9.525-3.015-1.64.149-3.214-7.6-1.507-10.2,2.2-3.777,6.792-3.992,11.032-4.058,4.257-.066,2.684-11.165,2.684-14.113s6.03-9.939,7.885-11.314,4.655,1.093,6.643-.629c4.39-3.694,6.527-7.951,5.085-10.071s-5.152-4.108-2.684-7.123c2.468-3.031,3.3-8.3,2.882-11.943-.414-3.628-1.706-8.15,1.574-10.072,3.3-1.922,2.269-3.015,2.269-6.659,0-3.628-.48-4.854,1.855-5.135,5.814-1.855,3.727-4.075,3.727-9.972s-7.5-12.921-11.165-10.535c-3.677,2.4-7.5,4.158-9.889,2.236-2.4-1.9-7.189-1.11-7.024-5.582.166-4.456.166-5.268-1.441-7.338-1.59-2.071-9.724-1.9-10.2-4.787-.48-2.866,4.307-6.212.679-10.353-3.628-4.158-1.955-3.992-.364-8.779,0,0,8.2,1.044,11.711-1.69s12.357-9.359,16.383-6.51c4.025,2.866,6.245,8.581,7.935,7.421,1.69-1.176,7.4-6.51,9.873-6.112,2.468.381,6.361,3.76,8.581,4.29,2.2.514,6.493,3.76,8.962,4.025s2.6,1.822,5.6,1.69c2.982-.133,8.581.166,11.049,1.458,2.468,1.275,6.493,3.876,10.519,3.1,4.042-.779,4.82-3.644,8.2-1.69.745.431,1.69.961,2.733,1.557,3.611,2.071,8.382,4.953,10.4,7.587a10.5,10.5,0,0,0-.514,3.512c0,2.965,0,4.986-3.363,6.874-3.379,1.888-2.982,1.888-1.358,4.605,1.623,2.7-1.342,9.989,0,17.41,1.358,7.421,2.435,5.4,8.912,6.212s9.31,5.4,10.933,8.779c1.623,3.363,4.058,7.968.812,10.254-3.23,2.3-2.7,6.891-1.756,10.27.944,3.363,12.689,5.119,15.538,7.007,2.833,1.9-1.093,8.912-1.756,12.291-.679,3.379,2.137,4.969.812,14.627s12.656,30.96,7.653,32.633c-4.986,1.656-3.992,9.326,0,17.658,4.009,8.332,8,10.3,11.33,11.314,3.33.994,1.656,7.653,7.322,10.983a7.353,7.353,0,0,1,3.843,8.117" transform="translate(243.197 2610.772)" fill="#f2f2f2"/>
    <path id="Path_303" data-name="Path 303" d="M332.834,339.719a8.837,8.837,0,0,0-4.721-2.816c-7.951-1.9-11.248-2-13.8,0-2.534,2.021-9.641,5.317-15.273,5.516-5.616.215-14.643,3.4-18.453,6.262-3.826,2.866-9.442,7.852-19.1,11.148-4.555,1.806-3.926.315-4.555-1.922-.646-2.22-5.847.331-6.792,1.276-.961.961-9.873,1.59-12.523,2.766-2.65,1.16-11.347.53-11.662-.745-.331-1.275-.116-11.993-3.18-11.778a2.151,2.151,0,0,0-.547.116.81.81,0,0,0-.182.066,5.723,5.723,0,0,0-1.789-1.044c-.1-.033-.2-.083-.315-.116a2.341,2.341,0,0,0-.364-.1c-3.048-.911-7.189-.679-8.829-.679a.323.323,0,0,1-.133-.017c-2.12-.232-.729-6.245,1.193-7.206,1.971-.961,3.048-4.39.894-7.255-2.137-2.866-1.242-4.655,1.259-9.094s.182-6.278-1.607-12.722c-1.391-5.019-5.881-7.106-7.8-7.786-.05-.017-.116-.033-.166-.05a1.534,1.534,0,0,0-.215-.066c-.315-.1-.5-.149-.5-.149-.845,1.226-1.425,2.22-1.425,2.22s-.547,0-1.226,2.12c-.5,1.574.514,1.706-.944,1.623-.48-.033-1.242-.083-2.419-.1-4.688-.083-5.168,1.259-8.051,1.259s-3.843.563-6.908,1.723c-3.065,1.143-18.6.48-18.6.48s-1.126-9.558,4.771-12.639c5.9-3.1,2.534-6.179,1.093-8.514-1.425-2.319-7.885-3.147-9.525-3.015-1.64.149-3.214-7.6-1.507-10.2,2.2-3.777,6.792-3.992,11.032-4.058,4.257-.066,2.684-11.165,2.684-14.113s6.03-9.939,7.885-11.314,4.655,1.093,6.643-.629c4.39-3.694,6.527-7.951,5.085-10.071s-5.152-4.108-2.684-7.123c2.468-3.031,3.3-8.3,2.882-11.943-.414-3.628-1.706-8.15,1.574-10.072,3.3-1.922,2.269-3.015,2.269-6.659,0-3.628-.48-4.854,1.855-5.135,5.814-1.855,3.727-4.075,3.727-9.972s-7.5-12.921-11.165-10.535c-3.677,2.4-7.5,4.158-9.889,2.236-2.4-1.9-7.189-1.11-7.024-5.582.166-4.456.166-5.268-1.441-7.338-1.59-2.071-9.724-1.9-10.2-4.787-.48-2.866,4.307-6.212.679-10.353-3.628-4.158-1.955-3.992-.364-8.779,0,0,8.2,1.044,11.711-1.69s12.357-9.359,16.383-6.51c4.025,2.866,6.245,8.581,7.935,7.421,1.69-1.176,7.4-6.51,9.873-6.112,2.468.381,6.361,3.76,8.581,4.29,2.2.514,6.493,3.76,8.962,4.025s2.6,1.822,5.6,1.69c2.982-.133,8.581.166,11.049,1.458,2.468,1.275,6.493,3.876,10.519,3.1,4.042-.779,4.82-3.644,8.2-1.69.745.431,1.69.961,2.733,1.557,3.611,2.071,8.382,4.953,10.4,7.587a10.5,10.5,0,0,0-.514,3.512c0,2.965,0,4.986-3.363,6.874-3.379,1.888-2.982,1.888-1.358,4.605,1.623,2.7-1.342,9.989,0,17.41,1.358,7.421,2.435,5.4,8.912,6.212s9.31,5.4,10.933,8.779c1.623,3.363,4.058,7.968.812,10.254-3.23,2.3-2.7,6.891-1.756,10.27.944,3.363,12.689,5.119,15.538,7.007,2.833,1.9-1.093,8.912-1.756,12.291-.679,3.379,2.137,4.969.812,14.627s12.656,30.96,7.653,32.633c-4.986,1.656-3.992,9.326,0,17.658,4.009,8.332,8,10.3,11.33,11.314,3.33.994,1.656,7.653,7.322,10.983A7.353,7.353,0,0,1,332.834,339.719Z" transform="translate(243.197 2610.772)" fill="none" stroke="#fff" stroke-miterlimit="10" stroke-width="2"/>
    <g id="Component_12_1" data-name="Component 12 – 1" transform="translate(381.171 2945.713)">
      <path id="Path_304" data-name="Path 304" d="M367.524,326.754c-.1,4.357-6.245,6.2-4.423,11.264,1.806,4.969,1.01,31.391.977,32.318-3.926-.53-3.412-.812-2.9,5.947.58,7.487-1.723,4.9-6.328,7.206s-2.584,18.006-2.584,18.006c-3.942-.1-7.471,2.684-9.873,3.893-4.257,2.12-17.708,16.631-26.554,16.979-8.846.364-14.511-5.649-29.734,2.485,0,0-8.8,2.717-10.6,4.009-2.6-3.727-6.609-9.376-13.136-11.4-2.7-.828-6.444-7.554-6.543-9.475s-3.2-4.158-5.765-3.628c-2.551.53.53-7.04-.745-8.117-1.276-1.06-8.813,1.044-13.782-3.015-2.949-1.855-6.46-3.147-6.643-8.481-.182-5.35-3.131-2.584-7.554-3.694-4.439-1.11-3.512-2.584-2.766-8.664.729-6.1-4.622-7.388-7.007-9.044-2.4-1.656-2.584-8.846-2.4-12.722s-11.065-6.079-11.993-8.3c-.911-2.2-4.506-12.159-13.269-11.43-1.623-.464-5.069-2.8-9.26-5.748-6.56-4.605-14.958-10.751-21-13.716,0,0,.033-9.144.033-14.262s-2.816-12.225-4.141-14.2c-1.309-1.988-4.456-3.147-3.3-7.935s5.947-3.3,8.912-3.462c2.982-.166,3.976-3.479,5.781-6.112,1.822-2.65,5.947.663,7.935,1.325.812.265,2-.53,3.263-1.656l-.381,6.825a8.752,8.752,0,0,0,6.377,8.1,8.26,8.26,0,0,0,2.4.348,8.685,8.685,0,0,0,5.334-1.822h.017a22.136,22.136,0,0,1,5.135.017,1.986,1.986,0,0,1,.663.182c2.982,1.275,5.5,8.945,7.073,10.419.861.812,1.325,1.524,1.988,1.607.646.1,1.491-.414,3.114-2.037,3.28-3.28,5.516-3.379,5.516-3.379,6.146-.53,4.771-3.4,9.657-6.046,4.489-2.452,8.1-8.779,11.049-9.906a.811.811,0,0,1,.182-.066,2.151,2.151,0,0,1,.547-.116c3.065-.215,2.849,10.5,3.18,11.778.315,1.275,9.011,1.9,11.662.745,2.65-1.176,11.562-1.806,12.523-2.766.944-.944,6.146-3.5,6.792-1.276.63,2.236,0,3.727,4.555,1.922,9.657-3.3,15.273-8.282,19.1-11.148,3.81-2.866,12.838-6.046,18.453-6.262,5.632-.2,12.738-3.5,15.273-5.516,2.551-2,5.847-1.9,13.8,0a8.837,8.837,0,0,1,4.721,2.816c3.462,3.876,3.33,10.486.48,14.378-3.827,5.2-1.59,5.947.944,8.167,2.551,2.22,1.491,1.806-1.59,7.106-3.065,5.3,2.766,9.972,4.986,13.269,2.236,3.28,5.947,3.711,7.537,4.655,1.59.961-.53,3.512-.745,7.653-.215,4.125.53,4.655,3.711,6.146s11.463,1.491,11.463,1.491Z" transform="translate(-145.981 -255.268)" fill="#cfd3b8"/>
    </g>
    <path id="Path_305" data-name="Path 305" d="M367.524,326.754c-.1,4.357-6.245,6.2-4.423,11.264,1.806,4.969,1.01,31.391.977,32.318-3.926-.53-3.412-.812-2.9,5.947.58,7.487-1.723,4.9-6.328,7.206s-2.584,18.006-2.584,18.006c-3.942-.1-7.471,2.684-9.873,3.893-4.257,2.12-17.708,16.631-26.554,16.979-8.846.364-14.511-5.649-29.734,2.485,0,0-8.8,2.717-10.6,4.009-2.6-3.727-6.609-9.376-13.136-11.4-2.7-.828-6.444-7.554-6.543-9.475s-3.2-4.158-5.765-3.628c-2.551.53.53-7.04-.745-8.117-1.276-1.06-8.813,1.044-13.782-3.015-2.949-1.855-6.46-3.147-6.643-8.481-.182-5.35-3.131-2.584-7.554-3.694-4.439-1.11-3.512-2.584-2.766-8.664.729-6.1-4.622-7.388-7.007-9.044-2.4-1.656-2.584-8.846-2.4-12.722s-11.065-6.079-11.993-8.3c-.911-2.2-4.506-12.159-13.269-11.43-1.623-.464-5.069-2.8-9.26-5.748-6.56-4.605-14.958-10.751-21-13.716,0,0,.033-9.144.033-14.262s-2.816-12.225-4.141-14.2c-1.309-1.988-4.456-3.147-3.3-7.935s5.947-3.3,8.912-3.462c2.982-.166,3.976-3.479,5.781-6.112,1.822-2.65,5.947.663,7.935,1.325.812.265,2-.53,3.263-1.656l-.381,6.825a8.752,8.752,0,0,0,6.377,8.1,8.26,8.26,0,0,0,2.4.348,8.685,8.685,0,0,0,5.334-1.822h.017a22.136,22.136,0,0,1,5.135.017,1.986,1.986,0,0,1,.663.182c2.982,1.275,5.5,8.945,7.073,10.419.861.812,1.325,1.524,1.988,1.607.646.1,1.491-.414,3.114-2.037,3.28-3.28,5.516-3.379,5.516-3.379,6.146-.53,4.771-3.4,9.657-6.046,4.489-2.452,8.1-8.779,11.049-9.906a.811.811,0,0,1,.182-.066,2.151,2.151,0,0,1,.547-.116c3.065-.215,2.849,10.5,3.18,11.778.315,1.275,9.011,1.9,11.662.745,2.65-1.176,11.562-1.806,12.523-2.766.944-.944,6.146-3.5,6.792-1.276.63,2.236,0,3.727,4.555,1.922,9.657-3.3,15.273-8.282,19.1-11.148,3.81-2.866,12.838-6.046,18.453-6.262,5.632-.2,12.738-3.5,15.273-5.516,2.551-2,5.847-1.9,13.8,0a8.837,8.837,0,0,1,4.721,2.816c3.462,3.876,3.33,10.486.48,14.378-3.827,5.2-1.59,5.947.944,8.167,2.551,2.22,1.491,1.806-1.59,7.106-3.065,5.3,2.766,9.972,4.986,13.269,2.236,3.28,5.947,3.711,7.537,4.655,1.59.961-.53,3.512-.745,7.653-.215,4.125.53,4.655,3.711,6.146s11.463,1.491,11.463,1.491Z" transform="translate(235.19 2690.445)" fill="none" stroke="#fff" stroke-miterlimit="10" stroke-width="2"/>
    <g id="Component_10_1" data-name="Component 10 – 1" transform="translate(175.315 2731.214)">
      <path id="Path_306" data-name="Path 306" d="M288.021,202.22c-2.336.282-1.855,1.507-1.855,5.135,0,3.644,1.027,4.738-2.269,6.659-3.28,1.922-1.988,6.444-1.574,10.072.414,3.644-.414,8.912-2.882,11.943-2.468,3.015,1.242,5,2.684,7.123s-.7,6.377-5.085,10.071c-1.988,1.723-4.787-.745-6.643.629s-7.885,8.365-7.885,11.314,1.574,14.047-2.684,14.113c-4.241.066-8.829.282-11.032,4.058-1.706,2.6-.133,10.353,1.507,10.2,1.64-.133,8.1.7,9.525,3.015,1.441,2.336,4.8,5.417-1.093,8.514-5.9,3.081-4.771,12.639-4.771,12.639h-1.723v11.446s-3.86-6.593-10.585-7.024c-6.742-.414-7.024.431-8.6-4.721s-4.572-5.864-13.169-7.156c-3.86,1.143-2.153-8.448-4.87-8.448s-9.591-1.143-12.457.58-2.866,7.868-8.73,7.736c-5.864-.149-15.024-8.746-15.024-8.746s-2.153,6.593.414,11.314c2.584,4.721,4.589,6.593,1.723,8.73-2.866,2.153-.712,10.022-3.429,10.32-2.717.282-11.745-3.3-17.327-2.153s-11.314,1.723-15.024,1.292c-3.727-.431-5.881-.58-10.171,1.855s-7.454-1.143-9.873-2.435c-2.435-1.292-5.3-10.022-12.324-14.312-7.007-4.29-8.73-15.323-11.6-15.753s-12.308,1.441-18.752-.861c-6.444-2.286-5-.133-4.439,4.87.58,5.019-1.292,5.45-4.572,4.87-3.3-.58-5.3,1.01-8.017-4.589-2.733-5.582-2.153-10.154-6.593-8.15s-2.584,9.442-8.448,10.734L47.8,308.335a13.748,13.748,0,0,1-.828-1.723c-.431-1.574-1.872-8.763-9.624-10.337-3.578-.431-5.019-6.328-5.881-8.481s-11.2-12.208-10.055-15.936S30.32,257.5,30.022,254.2c-.133-1.458.348-3.379.2-5.632.364.1,4.754,1.276,5.218-1.938a49.22,49.22,0,0,0,0-8.779H51.391s.961-9.078-1.276-11.314,1.11-7.984,6.063-7.984c4.936,0,17.228,1.275,17.542,0s0-7.8,0-7.8,20.574,10.684,24.715,10.833c4.158.166,5.914,4.158,8.945,3.992,3.015-.166,1.59-2.551,10.038-1.59,4.307,2.385,1.11-4.953,3.2-5.748,2.071-.8,1.276-2.717,8.282-2.717,7.024,0,6.858,0,6.858,3.2s5.433,1.922,5.748,4.787-2.717,6.692-1.11,9.889c1.59,3.18,7.487,3.827,16.267-1.441,4.622-3.661,4.936-.629,9.078-1.425,4.158-.812,4.473-7.67,8.779-8.465s14.826-7.173,14.991-11.314c.166-4.158-10.519-7.024-8.133-12.606s7.024-17.708,1.9-18.5c-5.1-.8-17.542,1.59-16.9-5.582.629-7.173-3.992-12.44-7.5-12.755-3.5-.315-8.282.961,2.236-6.228,10.535-7.173,10.535-9.889,10.2-14.03-.265-3.479,5.235-10.37,8.879-13.02a6.182,6.182,0,0,1,1.806-1.01c3.2-.961,7.338-3.826,9.094,1.9,1.756,5.748,3.677,6.709,11.016,5.914,7.322-.8,7.8-1.607,7.653-5.268-.166-3.661,4.936-3.346,7.338-3.2,2.385.166,8.282,3.512,12.109,3.677,3.827.149,4.953.48,7.819,2.236a40.372,40.372,0,0,0,10.055,3.777c2.7.679,6.858,6.262,5.251,11.049-1.59,4.787-3.263,4.622.364,8.779,3.628,4.141-1.16,7.487-.679,10.353.48,2.882,8.614,2.717,10.2,4.787,1.607,2.071,1.607,2.882,1.441,7.338-.166,4.473,4.622,3.677,7.024,5.582,2.385,1.922,6.212.166,9.889-2.236,3.661-2.385,11.165,4.638,11.165,10.535s2.087,8.117-3.727,9.972" transform="translate(-21.32 -125.445)" fill="#cfd3b8"/>
    </g>
    <path id="Path_307" data-name="Path 307" d="M288.021,202.22c-2.336.282-1.855,1.507-1.855,5.135,0,3.644,1.027,4.738-2.269,6.659-3.28,1.922-1.988,6.444-1.574,10.072.414,3.644-.414,8.912-2.882,11.943-2.468,3.015,1.242,5,2.684,7.123s-.7,6.377-5.085,10.071c-1.988,1.723-4.787-.745-6.643.629s-7.885,8.365-7.885,11.314,1.574,14.047-2.684,14.113c-4.241.066-8.829.282-11.032,4.058-1.706,2.6-.133,10.353,1.507,10.2,1.64-.133,8.1.7,9.525,3.015,1.441,2.336,4.8,5.417-1.093,8.514-5.9,3.081-4.771,12.639-4.771,12.639h-1.723v11.446s-3.86-6.593-10.585-7.024c-6.742-.414-7.024.431-8.6-4.721s-4.572-5.864-13.169-7.156c-3.86,1.143-2.153-8.448-4.87-8.448s-9.591-1.143-12.457.58-2.866,7.868-8.73,7.736c-5.864-.149-15.024-8.746-15.024-8.746s-2.153,6.593.414,11.314c2.584,4.721,4.589,6.593,1.723,8.73-2.866,2.153-.712,10.022-3.429,10.32-2.717.282-11.745-3.3-17.327-2.153s-11.314,1.723-15.024,1.292c-3.727-.431-5.881-.58-10.171,1.855s-7.454-1.143-9.873-2.435c-2.435-1.292-5.3-10.022-12.324-14.312-7.007-4.29-8.73-15.323-11.6-15.753s-12.308,1.441-18.752-.861c-6.444-2.286-5-.133-4.439,4.87.58,5.019-1.292,5.45-4.572,4.87-3.3-.58-5.3,1.01-8.017-4.589-2.733-5.582-2.153-10.154-6.593-8.15s-2.584,9.442-8.448,10.734L47.8,308.335a13.748,13.748,0,0,1-.828-1.723c-.431-1.574-1.872-8.763-9.624-10.337-3.578-.431-5.019-6.328-5.881-8.481s-11.2-12.208-10.055-15.936S30.32,257.5,30.022,254.2c-.133-1.458.348-3.379.2-5.632.364.1,4.754,1.276,5.218-1.938a49.22,49.22,0,0,0,0-8.779H51.391s.961-9.078-1.276-11.314,1.11-7.984,6.063-7.984c4.936,0,17.228,1.275,17.542,0s0-7.8,0-7.8,20.574,10.684,24.715,10.833c4.158.166,5.914,4.158,8.945,3.992,3.015-.166,1.59-2.551,10.038-1.59,4.307,2.385,1.11-4.953,3.2-5.748,2.071-.8,1.276-2.717,8.282-2.717,7.024,0,6.858,0,6.858,3.2s5.433,1.922,5.748,4.787-2.717,6.692-1.11,9.889c1.59,3.18,7.487,3.827,16.267-1.441,4.622-3.661,4.936-.629,9.078-1.425,4.158-.812,4.473-7.67,8.779-8.465s14.826-7.173,14.991-11.314c.166-4.158-10.519-7.024-8.133-12.606s7.024-17.708,1.9-18.5c-5.1-.8-17.542,1.59-16.9-5.582.629-7.173-3.992-12.44-7.5-12.755-3.5-.315-8.282.961,2.236-6.228,10.535-7.173,10.535-9.889,10.2-14.03-.265-3.479,5.235-10.37,8.879-13.02a6.182,6.182,0,0,1,1.806-1.01c3.2-.961,7.338-3.826,9.094,1.9,1.756,5.748,3.677,6.709,11.016,5.914,7.322-.8,7.8-1.607,7.653-5.268-.166-3.661,4.936-3.346,7.338-3.2,2.385.166,8.282,3.512,12.109,3.677,3.827.149,4.953.48,7.819,2.236a40.372,40.372,0,0,0,10.055,3.777c2.7.679,6.858,6.262,5.251,11.049-1.59,4.787-3.263,4.622.364,8.779,3.628,4.141-1.16,7.487-.679,10.353.48,2.882,8.614,2.717,10.2,4.787,1.607,2.071,1.607,2.882,1.441,7.338-.166,4.473,4.622,3.677,7.024,5.582,2.385,1.922,6.212.166,9.889-2.236,3.661-2.385,11.165,4.638,11.165,10.535S293.835,200.365,288.021,202.22Z" transform="translate(153.996 2605.768)" fill="none" stroke="#fff" stroke-miterlimit="10" stroke-width="2"/>
    <path id="Path_308" data-name="Path 308" d="M248.391,282.809c-1.259,1.126-2.452,1.922-3.263,1.656-1.988-.663-6.112-3.976-7.935-1.325-1.806,2.634-2.8,5.947-5.781,6.112-2.965.166-7.752-1.325-8.912,3.462s1.988,5.947,3.3,7.935c1.325,1.971,4.141,9.078,4.141,14.2s-.033,14.262-.033,14.262a14.444,14.444,0,0,0-5.417-1.739c-7.752-.182-11.065-.745-11.629-4.986-.547-4.241-5.334-6.079-7.918-4.423s-7.371,2.584-8.664,4.241-5.168,4.423-9.044,2.4c-3.876-2.038-4.787-3.512-9.409.182-4.605,3.694-9.21,6.1-15.372,1.507-6.179-4.588-12.192-.166-16.78,3.313-4.588,3.5-9.972,5.234-16.3.961-6.344-4.274-11.248-1.276-16.946-1.59s-10.7-2.021-22.048-9.425c-11.347-7.388-36.509-18.735-41.694-20.474-5.168-1.723-23.373-7.67-17.84-13.534,5.549-5.864,7.106-6.709,7.537-8s4.456.729,11.347-.994-8.614-18.669-9.624-20.69c-1.01-2-4.307-4.738.58-8.034,3.561-2.418,2.534-5.135,1.541-7.04l2.584-1.226c5.864-1.292,4.009-8.73,8.448-10.734s3.86,2.568,6.593,8.15c2.717,5.6,4.721,4.009,8.017,4.589,3.28.58,5.152.149,4.572-4.87-.563-5-2-7.156,4.439-4.87,6.444,2.3,15.886.431,18.752.861s4.589,11.463,11.6,15.753c7.024,4.29,9.889,13.02,12.324,14.312,2.418,1.292,5.582,4.87,9.873,2.435s6.444-2.286,10.171-1.855c3.711.431,9.442-.149,15.024-1.292s14.61,2.435,17.327,2.153c2.717-.3.563-8.167,3.429-10.32,2.866-2.137.861-4.009-1.723-8.73-2.568-4.721-.414-11.314-.414-11.314s9.16,8.6,15.024,8.746c5.864.133,5.864-6.013,8.73-7.736s9.74-.58,12.457-.58,1.01,9.591,4.87,8.448c8.6,1.292,11.6,2,13.169,7.156s1.855,4.307,8.6,4.721c6.725.431,10.585,7.024,10.585,7.024s2.021-.447,1.723,21.2" transform="translate(159.57 2672.975)" fill="#cfd3b8"/>
    <g id="Component_11_1" data-name="Component 11 – 1" transform="translate(189.378 2901.318)">
      <path id="Path_309" data-name="Path 309" d="M248.391,282.809c-1.259,1.126-2.452,1.922-3.263,1.656-1.988-.663-6.112-3.976-7.935-1.325-1.806,2.634-2.8,5.947-5.781,6.112-2.965.166-7.752-1.325-8.912,3.462s1.988,5.947,3.3,7.935c1.325,1.971,4.141,9.078,4.141,14.2s-.033,14.262-.033,14.262a14.444,14.444,0,0,0-5.417-1.739c-7.752-.182-11.065-.745-11.629-4.986-.547-4.241-5.334-6.079-7.918-4.423s-7.371,2.584-8.664,4.241-5.168,4.423-9.044,2.4c-3.876-2.038-4.787-3.512-9.409.182-4.605,3.694-9.21,6.1-15.372,1.507-6.179-4.588-12.192-.166-16.78,3.313-4.588,3.5-9.972,5.234-16.3.961-6.344-4.274-11.248-1.276-16.946-1.59s-10.7-2.021-22.048-9.425c-11.347-7.388-36.509-18.735-41.694-20.474-5.168-1.723-23.373-7.67-17.84-13.534,5.549-5.864,7.106-6.709,7.537-8s4.456.729,11.347-.994-8.614-18.669-9.624-20.69c-1.01-2-4.307-4.738.58-8.034,3.561-2.418,2.534-5.135,1.541-7.04l2.584-1.226c5.864-1.292,4.009-8.73,8.448-10.734s3.86,2.568,6.593,8.15c2.717,5.6,4.721,4.009,8.017,4.589,3.28.58,5.152.149,4.572-4.87-.563-5-2-7.156,4.439-4.87,6.444,2.3,15.886.431,18.752.861s4.589,11.463,11.6,15.753c7.024,4.29,9.889,13.02,12.324,14.312,2.418,1.292,5.582,4.87,9.873,2.435s6.444-2.286,10.171-1.855c3.711.431,9.442-.149,15.024-1.292s14.61,2.435,17.327,2.153c2.717-.3.563-8.167,3.429-10.32,2.866-2.137.861-4.009-1.723-8.73-2.568-4.721-.414-11.314-.414-11.314s9.16,8.6,15.024,8.746c5.864.133,5.864-6.013,8.73-7.736s9.74-.58,12.457-.58,1.01,9.591,4.87,8.448c8.6,1.292,11.6,2,13.169,7.156s1.855,4.307,8.6,4.721c6.725.431,10.585,7.024,10.585,7.024S248.689,261.158,248.391,282.809Z" transform="translate(-29.808 -228.343)" fill="none" stroke="#fff" stroke-miterlimit="10" stroke-width="2"/>
    </g>
    <path id="Path_310" data-name="Path 310" d="M220.39,282.165c-2.949,1.126-6.56,7.454-11.049,9.906-4.887,2.65-3.512,5.516-9.657,6.046,0,0-2.236.1-5.516,3.379-1.623,1.623-2.468,2.137-3.114,2.037a12.818,12.818,0,0,1-1.574-1.474c-1.64-1.541-4.307-9.84-7.487-10.552a1.986,1.986,0,0,0-.663-.182,22.138,22.138,0,0,0-5.135-.017h-.017a8.685,8.685,0,0,1-5.334,1.822,8.261,8.261,0,0,1-2.4-.348,8.752,8.752,0,0,1-6.377-8.1l.381-6.825c.3-21.65-1.723-21.2-1.723-21.2V245.209h1.723s15.538.663,18.6-.48c3.065-1.16,4.025-1.723,6.908-1.723s3.363-1.342,8.051-1.259c1.176.017,1.938.066,2.418.1,1.458.083.447-.05.944-1.623.679-2.12,1.226-2.12,1.226-2.12s.58-.994,1.425-2.22c0,0,.182.05.5.149a1.528,1.528,0,0,1,.215.066c.05.017.116.033.166.05,1.922.679,6.411,2.766,7.8,7.786,1.789,6.444,4.108,8.282,1.607,12.722s-3.4,6.228-1.259,9.094c2.153,2.866,1.077,6.295-.894,7.255-1.922.961-3.313,6.974-1.193,7.206a.964.964,0,0,0,.547.149,35.006,35.006,0,0,1,8.415.547,2.348,2.348,0,0,1,.364.1c.116.033.215.083.315.116a5.724,5.724,0,0,1,1.789,1.044" transform="translate(244.929 2677.936)" fill="#eff0f0"/>
    <path id="Path_311" data-name="Path 311" d="M220.39,282.165c-2.949,1.126-6.56,7.454-11.049,9.906-4.887,2.65-3.512,5.516-9.657,6.046,0,0-2.236.1-5.516,3.379-1.623,1.623-2.468,2.137-3.114,2.037a12.818,12.818,0,0,1-1.574-1.474c-1.64-1.541-4.307-9.84-7.487-10.552a1.986,1.986,0,0,0-.663-.182,22.138,22.138,0,0,0-5.135-.017h-.017a8.685,8.685,0,0,1-5.334,1.822,8.261,8.261,0,0,1-2.4-.348,8.752,8.752,0,0,1-6.377-8.1l.381-6.825c.3-21.65-1.723-21.2-1.723-21.2V245.209h1.723s15.538.663,18.6-.48c3.065-1.16,4.025-1.723,6.908-1.723s3.363-1.342,8.051-1.259c1.176.017,1.938.066,2.418.1,1.458.083.447-.05.944-1.623.679-2.12,1.226-2.12,1.226-2.12s.58-.994,1.425-2.22c0,0,.182.05.5.149a1.528,1.528,0,0,1,.215.066c.05.017.116.033.166.05,1.922.679,6.411,2.766,7.8,7.786,1.789,6.444,4.108,8.282,1.607,12.722s-3.4,6.228-1.259,9.094c2.153,2.866,1.077,6.295-.894,7.255-1.922.961-3.313,6.974-1.193,7.206a.964.964,0,0,0,.547.149,35.006,35.006,0,0,1,8.415.547,2.348,2.348,0,0,1,.364.1c.116.033.215.083.315.116A5.724,5.724,0,0,1,220.39,282.165Z" transform="translate(244.929 2677.936)" fill="#f2f2f2" stroke="#fff" stroke-miterlimit="10" stroke-width="2"/>
    <path id="Path_312" data-name="Path 312" d="M178.933,269.6a.664.664,0,0,0-.248-.05,22.132,22.132,0,0,0-5.135-.017h-.017a8.685,8.685,0,0,1-5.334,1.822,8.31,8.31,0,0,1-2.816-.48,8.26,8.26,0,0,0,2.4.348,8.685,8.685,0,0,0,5.334-1.822h.017a22.136,22.136,0,0,1,5.135.017,1.986,1.986,0,0,1,.663.182" transform="translate(248 2699.794)" fill="#acd0ee"/>
    <path id="Path_313" data-name="Path 313" d="M178.933,269.6a.664.664,0,0,0-.248-.05,22.132,22.132,0,0,0-5.135-.017h-.017a8.685,8.685,0,0,1-5.334,1.822,8.31,8.31,0,0,1-2.816-.48,8.26,8.26,0,0,0,2.4.348,8.685,8.685,0,0,0,5.334-1.822h.017a22.136,22.136,0,0,1,5.135.017A1.986,1.986,0,0,1,178.933,269.6Z" transform="translate(248 2699.794)" fill="none" stroke="#fff" stroke-miterlimit="10" stroke-width="1"/>
    <path id="Path_314" data-name="Path 314" d="M208.784,264.369c-2.949,1.126-6.56,7.454-11.049,9.906-4.887,2.65-3.512,5.516-9.657,6.046,0,0-2.236.1-5.516,3.379-1.988,1.988-2.816,2.319-3.528,1.9.646.1,1.491-.414,3.114-2.038,3.28-3.28,5.516-3.379,5.516-3.379,6.146-.53,4.771-3.4,9.657-6.046,4.489-2.452,8.1-8.779,11.049-9.906a5.723,5.723,0,0,0-1.789-1.044,6.1,6.1,0,0,1,1.971.977,2.875,2.875,0,0,1,.232.2" transform="translate(256.903 2695.811)" fill="#acd0ee"/>
    <path id="Path_315" data-name="Path 315" d="M208.784,264.369c-2.949,1.126-6.56,7.454-11.049,9.906-4.887,2.65-3.512,5.516-9.657,6.046,0,0-2.236.1-5.516,3.379-1.988,1.988-2.816,2.319-3.528,1.9.646.1,1.491-.414,3.114-2.038,3.28-3.28,5.516-3.379,5.516-3.379,6.146-.53,4.771-3.4,9.657-6.046,4.489-2.452,8.1-8.779,11.049-9.906a5.723,5.723,0,0,0-1.789-1.044,6.1,6.1,0,0,1,1.971.977A2.875,2.875,0,0,1,208.784,264.369Z" transform="translate(256.903 2695.811)" fill="none" stroke="#fff" stroke-miterlimit="10" stroke-width="1"/>
    <path id="Path_316" data-name="Path 316" d="M652.449,558.474c-.563,1.01-4.953,3.827-8.332,3.479-3.379-.331-4.953.563-7.885,1.806-2.915,1.242-7.769,8.448-10.684,9.906-2.932,1.458-3.611-2.485-4.39-4.837-3.147-4.39-5.516-2.932-6.079-1.574-.563,1.342,2.932,6.626.116,5.516-4.837-6.311-19.48-15.306-23.87-4.738-4.39,10.585-2.021,9.79-1.458,11.827.563,2.021,9.227,2.236,8.1,5.052-1.574,5.4,2.253,5.963,3.147,6.758.911.779,13.169,3.263,15.207,3.943,2.021.663-.563,5.963-.679,7.868-.116,1.922,4.39,8.1,3.545,11.48s-.613,6.427,0,7.206c.63.8,3.214.8,3.313,2.369.116,1.574-2.816,2.915-2.352,8.216a23.429,23.429,0,0,1-.961,9.144c-5.251,4.721-5.9,14.561-5.9,17.576,0,3,11.794,25.908,11.794,25.908s1.938,9.359-5.1,4.141c-7.04-5.2-.513-6-14.08-6-13.55,0-11.463,3.909-17.194,1.044-5.748-2.866-13.832-12.241-19.033-7.289-5.218,4.953-9.392,6-14.61,6.775s-5.466,2.369-10.171,7.057c-3.462,3.446-14.594,8.9-22.164,11.3,0,0-13.086-24.086-16.615-25.146-3.545-1.06-18.42-51.683-20.176-57-1.772-5.3-25.858-36.112-26.206-40.352-.348-4.257,4.241-15.935,12.738-25.841,5.665-6.378-20.888-17.36-25.841-20.541s-7.786-3.71-15.919-13.8c-8.15-10.1-8.5-5.135-18.768-6.56-10.27-1.408-6.725-11.33-1.425-20.524,5.317-9.21,13.815-9.558,9.922-22.661s-6.378-4.39-2.485-28.575c2.833-5.765-26.189-12.854-27.962-10.717a13.453,13.453,0,0,1-2.568,2.054c-1.938-3.114-9.591-15.886-5.152-17.493,5.052-1.839,4.373-3.677,3.909-11.612-.464-7.918-4.141-9.806.464-16.018s1.607-8.051.911-11.049c-.679-3-7.587-7.371-9.21-12.656-1.607-5.3,7.371-10.6,10.37-14.047,3-3.462-.232-10.138,5.516-9.906,5.765.232,6-5.069,12.01-12.672,5.831-7.338,12.987-.017,13.318.249,1.408,2.319,2.949,4.787,2.949,4.787a86.141,86.141,0,0,0,7.984,9.84c4.9,5.168,9.045,7.719,12.854,9.177,3.611,1.391,6.924,1.806,10.336,2.518,8.813,1.806,18.586,5.731,20.69,8.945,2.087,3.214,7.686,27.68,21.518,30.612,13.848,2.932,16.366,8.249,18.188,9.508,1.806,1.259,5.168,17.194,12.291,19.431,7.14,2.236,13.981,2.518,23.489-3.214a85.917,85.917,0,0,1,14.544-7.421c2.087-.977,5.019,2.949,7.4,3.164,2.369.2,3.5-1.474,6.013-2.021,2.518-.53-.7,6.129,1.806,9.773,4.754,6.99,9.906,6.063,13.5,4.936a18.382,18.382,0,0,1,9.011-.663c2.137.464,2.7,4.39,5.284,2.236,4.274-4.042,9.459-1.673,11.711,0,2.236,1.69,13.832,16.1,9.111,17.344-8.564-.232-11.6,2.816-12.391,5.731-.779,2.932,2.932,12.391,1.474,13.616-1.474,1.242-8.216-5.052-13.848,3.611s-8.663,7.09-12.374,7.09-13.285,1.574-13.285,9.343c1.458,18.453,20.822,25.427,27.349,25.659,6.527.215,11.811-1.922,13.616,10.353,1.806,12.258,9.343,20.922,10.8,20.822,1.474-.116,4.622-.348,7.769,4.721,4.837,7.537,15.637,10.022,15.091,11.032" transform="translate(386.235 2734.729)" fill="#f2f2f2"/>
    <path id="Path_317" data-name="Path 317" d="M652.449,558.474c-.563,1.01-4.953,3.827-8.332,3.479-3.379-.331-4.953.563-7.885,1.806-2.915,1.242-7.769,8.448-10.684,9.906-2.932,1.458-3.611-2.485-4.39-4.837-3.147-4.39-5.516-2.932-6.079-1.574-.563,1.342,2.932,6.626.116,5.516-4.837-6.311-19.48-15.306-23.87-4.738-4.39,10.585-2.021,9.79-1.458,11.827.563,2.021,9.227,2.236,8.1,5.052-1.574,5.4,2.253,5.963,3.147,6.758.911.779,13.169,3.263,15.207,3.943,2.021.663-.563,5.963-.679,7.868-.116,1.922,4.39,8.1,3.545,11.48s-.613,6.427,0,7.206c.63.8,3.214.8,3.313,2.369.116,1.574-2.816,2.915-2.352,8.216a23.429,23.429,0,0,1-.961,9.144c-5.251,4.721-5.9,14.561-5.9,17.576,0,3,11.794,25.908,11.794,25.908s1.938,9.359-5.1,4.141c-7.04-5.2-.513-6-14.08-6-13.55,0-11.463,3.909-17.194,1.044-5.748-2.866-13.832-12.241-19.033-7.289-5.218,4.953-9.392,6-14.61,6.775s-5.466,2.369-10.171,7.057c-3.462,3.446-14.594,8.9-22.164,11.3,0,0-13.086-24.086-16.615-25.146-3.545-1.06-18.42-51.683-20.176-57-1.772-5.3-25.858-36.112-26.206-40.352-.348-4.257,4.241-15.935,12.738-25.841,5.665-6.378-20.888-17.36-25.841-20.541s-7.786-3.71-15.919-13.8c-8.15-10.1-8.5-5.135-18.768-6.56-10.27-1.408-6.725-11.33-1.425-20.524,5.317-9.21,13.815-9.558,9.922-22.661s-6.378-4.39-2.485-28.575c2.833-5.765-26.189-12.854-27.962-10.717a13.453,13.453,0,0,1-2.568,2.054c-1.938-3.114-9.591-15.886-5.152-17.493,5.052-1.839,4.373-3.677,3.909-11.612-.464-7.918-4.141-9.806.464-16.018s1.607-8.051.911-11.049c-.679-3-7.587-7.371-9.21-12.656-1.607-5.3,7.371-10.6,10.37-14.047,3-3.462-.232-10.138,5.516-9.906,5.765.232,6-5.069,12.01-12.672,5.831-7.338,12.987-.017,13.318.249,1.408,2.319,2.949,4.787,2.949,4.787a86.141,86.141,0,0,0,7.984,9.84c4.9,5.168,9.045,7.719,12.854,9.177,3.611,1.391,6.924,1.806,10.336,2.518,8.813,1.806,18.586,5.731,20.69,8.945,2.087,3.214,7.686,27.68,21.518,30.612,13.848,2.932,16.366,8.249,18.188,9.508,1.806,1.259,5.168,17.194,12.291,19.431,7.14,2.236,13.981,2.518,23.489-3.214a85.917,85.917,0,0,1,14.544-7.421c2.087-.977,5.019,2.949,7.4,3.164,2.369.2,3.5-1.474,6.013-2.021,2.518-.53-.7,6.129,1.806,9.773,4.754,6.99,9.906,6.063,13.5,4.936a18.382,18.382,0,0,1,9.011-.663c2.137.464,2.7,4.39,5.284,2.236,4.274-4.042,9.459-1.673,11.711,0,2.236,1.69,13.832,16.1,9.111,17.344-8.564-.232-11.6,2.816-12.391,5.731-.779,2.932,2.932,12.391,1.474,13.616-1.474,1.242-8.216-5.052-13.848,3.611s-8.663,7.09-12.374,7.09-13.285,1.574-13.285,9.343c1.458,18.453,20.822,25.427,27.349,25.659,6.527.215,11.811-1.922,13.616,10.353,1.806,12.258,9.343,20.922,10.8,20.822,1.474-.116,4.622-.348,7.769,4.721C642.2,554.979,653,557.464,652.449,558.474Z" transform="translate(386.235 2734.729)" fill="none" stroke="#fff" stroke-miterlimit="10" stroke-width="2"/>
    <path id="Path_318" data-name="Path 318" d="M564.5,326.056c-5.168,1.822-3.909,4.323-1.541,5.3,2.385.994.431,12.589.282,21.253-.133,8.663-.845,8.813-6.576,11.463-5.732,2.667-9.773,6.99-10.337,9.508s1.822,12.722-1.126,15.521c-8.382,8.531-5.3,8.448-7.4,15.869-2.087,7.4-2.65,0-6.146-3.926-3.5-3.909-11.181-2.369-16.913-3.5-5.731-1.11-22.23-1.259-32.848-2.65-10.635-1.391-27.133,1.126-28.111,9.79-.1.895-.166,1.723-.2,2.468a9.495,9.495,0,0,1-9.608-2.866c-1.723-1.855,1.706-5.152-2-4.423-3.711.712-6.858-1.574-9.144,1.424-3.86,6.858.712,12.871-6.725,10.287-7.438-2.568-9.575,4.158-12.507,6.444-2.915,2.286-2.932.133-8.365,2.849s-8.017,3.86-10.867,2c-2.866-1.855-2-2.137-5.433-.132-3.429,1.988-3.86,1.988-5.715-.729-1.872-2.717-4.29-2.286-7.736,0-3.429,2.3-23.489,1.375-26.951,1.077-3.446-.282-.861,3.181-6.626,2.882-5.748-.282-6.328,1.723-6.328,1.723,1.143,7.206.282,8.647-3.462,11.811s-4.887.3-5.466,6.626-2.584,4.605-5.765,4.605c-3.164,0-1.441,4.605-6.908,4.025-.53-.05-.994-.116-1.425-.182.033-.928.828-27.349-.977-32.318C309.752,417.2,315.9,415.357,316,411l.116-4.34s-8.282,0-11.463-1.491-3.926-2.021-3.711-6.146c.215-4.141,2.336-6.692.745-7.653-1.59-.944-5.3-1.375-7.537-4.655-2.22-3.3-8.051-7.968-4.986-13.269,3.081-5.3,4.141-4.887,1.59-7.106-2.534-2.22-4.771-2.965-.944-8.167,2.849-3.893,2.982-10.5-.48-14.378a7.353,7.353,0,0,0-3.843-8.117c-5.665-3.33-3.992-9.989-7.322-10.983-3.33-1.01-7.322-2.982-11.33-11.314-3.992-8.332-4.986-16,0-17.658,5-1.673-8.978-22.976-7.653-32.633s-1.491-11.248-.812-14.627c.663-3.379,4.588-10.386,1.756-12.291-2.849-1.888-14.594-3.644-15.538-7.007-.944-3.379-1.474-7.968,1.756-10.27,3.247-2.286.812-6.891-.812-10.254-1.623-3.379-4.456-7.968-10.933-8.779s-7.554,1.209-8.912-6.212c-1.342-7.421,1.623-14.71,0-17.41-1.623-2.717-2.021-2.717,1.358-4.605,3.363-1.888,3.363-3.909,3.363-6.874a10.5,10.5,0,0,1,.514-3.512c.646-1.772,2.021-2.816,4.771-.977,4.406,2.932,7.719,3.031,7.9-.977.182-3.992,1.839-5.649,4.423-3.081,2.584,2.584,8.829,1.574,9.575-1.226.729-2.816.911-4.307,4.787-4.29,3.86,0,4.042.182,6.063,4.042,2.021,3.876,2.021,7.007,9.028,5.152,2.385-1.093,7.835,6.262,10.353,6.626,2.518.381,2.336,2.4,7.487-4.042s9.939-6.626,12.159-7.918c2.2-1.292,1.839-8.829,2.021-11.413.182-2.568,0-6.626,0-6.626s16.565,1.855,19.331-3.114c2.75-4.97,3.5-8.481,8.266-5.168,4.787,3.313,6.626,3.313,10.867,1.474s9.011,2.037,11.049,5.715c2.021,3.677,6.245,9.757,14.527,10.486s5.682,6.626,20.325,12.888a22.311,22.311,0,0,0,1.574,6.841c5.549,15.058,8.713,18.221,15.455,21.385,6.742,3.18,4.357,14.262,5.947,18.238,1.574,3.959,10.7,4.754,13.07,9.508,2.385,4.754.8,15.853,4.754,17.824,3.959,1.988,31.308,25.361,34.074,29.32,2.783,3.959,25.46,15.356,28.674,16.615,3.214,1.242,14.676,10.337,20.126,12.291,5.466,1.955,6.858,3.363,8.813,7.968,7.272,10.9,15.107,5.732,19.3,4.34,4.191-1.408,10.2-2.385,11.745,2.518,1.524,4.887,4.754,6.56,6.013,8.514,4.738,6.725,6.278,10.072,1.11,11.894" transform="translate(286.18 2606.622)" fill="#f2f2f2"/>
    <path id="Path_319" data-name="Path 319" d="M564.5,326.056c-5.168,1.822-3.909,4.323-1.541,5.3,2.385.994.431,12.589.282,21.253-.133,8.663-.845,8.813-6.576,11.463-5.732,2.667-9.773,6.99-10.337,9.508s1.822,12.722-1.126,15.521c-8.382,8.531-5.3,8.448-7.4,15.869-2.087,7.4-2.65,0-6.146-3.926-3.5-3.909-11.181-2.369-16.913-3.5-5.731-1.11-22.23-1.259-32.848-2.65-10.635-1.391-27.133,1.126-28.111,9.79-.1.895-.166,1.723-.2,2.468a9.495,9.495,0,0,1-9.608-2.866c-1.723-1.855,1.706-5.152-2-4.423-3.711.712-6.858-1.574-9.144,1.424-3.86,6.858.712,12.871-6.725,10.287-7.438-2.568-9.575,4.158-12.507,6.444-2.915,2.286-2.932.133-8.365,2.849s-8.017,3.86-10.867,2c-2.866-1.855-2-2.137-5.433-.132-3.429,1.988-3.86,1.988-5.715-.729-1.872-2.717-4.29-2.286-7.736,0-3.429,2.3-23.489,1.375-26.951,1.077-3.446-.282-.861,3.181-6.626,2.882-5.748-.282-6.328,1.723-6.328,1.723,1.143,7.206.282,8.647-3.462,11.811s-4.887.3-5.466,6.626-2.584,4.605-5.765,4.605c-3.164,0-1.441,4.605-6.908,4.025-.53-.05-.994-.116-1.425-.182.033-.928.828-27.349-.977-32.318C309.752,417.2,315.9,415.357,316,411l.116-4.34s-8.282,0-11.463-1.491-3.926-2.021-3.711-6.146c.215-4.141,2.336-6.692.745-7.653-1.59-.944-5.3-1.375-7.537-4.655-2.22-3.3-8.051-7.968-4.986-13.269,3.081-5.3,4.141-4.887,1.59-7.106-2.534-2.22-4.771-2.965-.944-8.167,2.849-3.893,2.982-10.5-.48-14.378a7.353,7.353,0,0,0-3.843-8.117c-5.665-3.33-3.992-9.989-7.322-10.983-3.33-1.01-7.322-2.982-11.33-11.314-3.992-8.332-4.986-16,0-17.658,5-1.673-8.978-22.976-7.653-32.633s-1.491-11.248-.812-14.627c.663-3.379,4.588-10.386,1.756-12.291-2.849-1.888-14.594-3.644-15.538-7.007-.944-3.379-1.474-7.968,1.756-10.27,3.247-2.286.812-6.891-.812-10.254-1.623-3.379-4.456-7.968-10.933-8.779s-7.554,1.209-8.912-6.212c-1.342-7.421,1.623-14.71,0-17.41-1.623-2.717-2.021-2.717,1.358-4.605,3.363-1.888,3.363-3.909,3.363-6.874a10.5,10.5,0,0,1,.514-3.512c.646-1.772,2.021-2.816,4.771-.977,4.406,2.932,7.719,3.031,7.9-.977.182-3.992,1.839-5.649,4.423-3.081,2.584,2.584,8.829,1.574,9.575-1.226.729-2.816.911-4.307,4.787-4.29,3.86,0,4.042.182,6.063,4.042,2.021,3.876,2.021,7.007,9.028,5.152,2.385-1.093,7.835,6.262,10.353,6.626,2.518.381,2.336,2.4,7.487-4.042s9.939-6.626,12.159-7.918c2.2-1.292,1.839-8.829,2.021-11.413.182-2.568,0-6.626,0-6.626s16.565,1.855,19.331-3.114c2.75-4.97,3.5-8.481,8.266-5.168,4.787,3.313,6.626,3.313,10.867,1.474s9.011,2.037,11.049,5.715c2.021,3.677,6.245,9.757,14.527,10.486s5.682,6.626,20.325,12.888a22.311,22.311,0,0,0,1.574,6.841c5.549,15.058,8.713,18.221,15.455,21.385,6.742,3.18,4.357,14.262,5.947,18.238,1.574,3.959,10.7,4.754,13.07,9.508,2.385,4.754.8,15.853,4.754,17.824,3.959,1.988,31.308,25.361,34.074,29.32,2.783,3.959,25.46,15.356,28.674,16.615,3.214,1.242,14.676,10.337,20.126,12.291,5.466,1.955,6.858,3.363,8.813,7.968,7.272,10.9,15.107,5.732,19.3,4.34,4.191-1.408,10.2-2.385,11.745,2.518,1.524,4.887,4.754,6.56,6.013,8.514C568.132,320.887,569.672,324.233,564.5,326.056Z" transform="translate(286.18 2606.622)" fill="none" stroke="#fff" stroke-miterlimit="10" stroke-width="2"/>
    <path id="Path_320" data-name="Path 320" d="M348.564,208.508s-1.632,5.1,0,8.566,3.875.611,8.362,1.428,10.4,8.7,7.953-4.829,14.889-2.718,16.52-.474,10.809,14.072,14.072,18.761S402,248.277,410.765,249.7s17.744,6.323,20.395,12.033,14.276,20.191,16.928,21.823,3.467,3.263,3.875,9.788,1.632,22.841-1.632,26.1-8.77,8.77-17.335,5.1-12.644-.611-17.539,3.263-6.527,3.06-13.255,0-17.539-3.06-24.269,5.914c-3.083,5.236-6.946.73-11.968.858s-12.49,1.675-17-.386-6.18.386-10.043-7.211-11.718-13.777-10.946-26.525,3.242-27.683-.053-31.675,2.629-7.983,2.629-12.619-2.7-19.186-14.035-14.678-10.559-2.833-13.906-4.249-3.348.772-2.188-8.112.119-10.2-6.268-10.669-7.933-1.613-9.546-5.244-7.058-12.639-9.749-11.63-5.513,2.756-6.924.336-3.563-4.64-7.6-4.64-10.287-2.554-2.622-9.681,11.764-6.522,11.63-10.219-10.689-8.874-11.362-11.5.741-10.489,3.161-10.421,12.705-.268,12.773,1.277.2,7.6,4.974,7.665,14.589.4,16.27,3.7,3.831,12.034,16,12.841,37.149,26.62,37.4,27.562" transform="translate(305.72 2625.362)" fill="#c9dbdd"/>
    <path id="Path_321" data-name="Path 321" d="M202.849,271.7c-.166,4.141-10.684,10.519-14.991,11.314s-4.622,7.653-8.779,8.465c-4.141.8-4.456-2.236-9.078,1.425-8.779,5.268-14.677,4.622-16.267,1.441-1.607-3.2,1.425-7.024,1.11-9.889s-5.748-1.59-5.748-4.787.166-3.2-6.858-3.2c-7.007,0-6.212,1.922-8.282,2.717-2.087.8,1.11,8.133-3.2,5.748-8.448-.961-7.024,1.425-10.038,1.59-3.031.166-4.787-3.827-8.945-3.992C107.634,282.385,87.06,271.7,87.06,271.7s.315,6.527,0,7.8-12.606,0-17.542,0c-4.953,0-8.3,5.748-6.063,7.984S64.73,298.8,64.73,298.8H48.778a49.22,49.22,0,0,1,0,8.779c-.464,3.214-4.854,2.037-5.218,1.938-.2-2.849-1.425-6.245-6.179-9.956-8.5-6.659-13.484-8.5-11.281-13.484,2.22-4.986,3.694-3.694,3.893-5.731.182-2.038.182-3.131,3.313-3.33,3.147-.182,5.549-3.313,7.206-5.35,1.673-2.037.928-3.147,3.512-1.855,2.584,1.309,3.876.563,3.876-2.021s.563-3.512,3.893-3.876c3.313-.381-.066-2.071-.066-5.218a18.416,18.416,0,0,0-.348-2.816c6.262,1.11,3.346-.712,7.7-2.452,4.34-1.739,9.558-13.484,11.745-16.532,2.17-3.048,3.031-8.912,4.34-13.269,1.309-4.34,6.1-4.34,6.891-8.912.8-4.555.729-6.079,2.236-8.266,1.524-2.17.663-5.649,1.093-8.034.315-1.739-3.346-1.491-5.384-1.209.861-.745.878-3.048.944-6.527.1-4.738,1.01-12.225-3-17.691s-17.41-26.968-17.128-31.258c.265-4.274,1.358-21.4-.182-23.688-1.557-2.269-19.149-23.323-24.152-25.427-5.019-2.087-7.653,1.822-12.126-2.816-4.456-4.655-6.924-5.1-11.844-4.555S7.233,80.227,6.405,74.578c-.812-5.649-3.909-8.2-4.373-10.933C1.668,61.409-.287,56.158,2.38,49.1c0,0,12.854,1.226,18.7-3.23,5.864-4.473,4.605-7.255,14.494-4.323C45.482,44.479,47.288,46.567,51.329,46s18.685.514,23.97,3.247c5.3,2.75,12.407,3.578,16.863.663.3-.2.629-.431,1.01-.712,5.433-4.092,19.464-17.1,29.237-16.582,5.433.3,12.888.663,19.729.646,0,0,.149,7.371.149,10.734,0,3.346-5.8,5.384-6.046,12.092s6.46,8.084,8.266,9.31a36.158,36.158,0,0,0,9.806,3.843c2.7.5,1.226,4.423.895,6.626s1.143,4.257,7.438,6.212,7.52,2.949,7.272,6.046c-.248,3.114,1.64,10.138-3.263,8.5-4.9-1.623-5.963,6.46.812,5.9,6.792-.58,14.395,2.037,17.161,3.263,2.783,1.226-.646,5.483-1.623,6.775-.994,1.309.48,8.034-1.888,8.1-4.738-.5-6.046,1.723-5.317,3.677.745,1.955,1.888,2.037-.646,7.935-2.534,5.881-4.009,3.18-9.392,1.541-5.4-1.623-9.409.994-10.718,6.792s-4.009,6.775-6.775,9.31c-2.783,2.534,1.541,5.566,2.452,7.206.894,1.623,4.323,4.572,3.992,8.829-.315,4.241.033,5.085,2.1,6.295,2.087,1.209,10.4-.514,14.047,0s2.071,12.308,5.2,14.146c3.114,1.855,7.454-1.143,8.15-2.882.679-1.739-1.044-3.3,4.158-.861,5.135,2.385,5.168,6.228,5.168,6.328-3.644,2.65-9.144,9.541-8.879,13.02.331,4.141.331,6.858-10.2,14.03-10.519,7.189-5.731,5.914-2.236,6.228,3.512.315,8.133,5.582,7.5,12.755-.646,7.173,11.794,4.787,16.9,5.582,5.119.8.48,12.921-1.9,18.5s8.3,8.448,8.133,12.606" transform="translate(140.656 2545.405)" fill="#eff0f0"/>
    <path id="Path_322" data-name="Path 322" d="M202.849,271.7c-.166,4.141-10.684,10.519-14.991,11.314s-4.622,7.653-8.779,8.465c-4.141.8-4.456-2.236-9.078,1.425-8.779,5.268-14.677,4.622-16.267,1.441-1.607-3.2,1.425-7.024,1.11-9.889s-5.748-1.59-5.748-4.787.166-3.2-6.858-3.2c-7.007,0-6.212,1.922-8.282,2.717-2.087.8,1.11,8.133-3.2,5.748-8.448-.961-7.024,1.425-10.038,1.59-3.031.166-4.787-3.827-8.945-3.992C107.634,282.385,87.06,271.7,87.06,271.7s.315,6.527,0,7.8-12.606,0-17.542,0c-4.953,0-8.3,5.748-6.063,7.984S64.73,298.8,64.73,298.8H48.778a49.22,49.22,0,0,1,0,8.779c-.464,3.214-4.854,2.037-5.218,1.938-.2-2.849-1.425-6.245-6.179-9.956-8.5-6.659-13.484-8.5-11.281-13.484,2.22-4.986,3.694-3.694,3.893-5.731.182-2.038.182-3.131,3.313-3.33,3.147-.182,5.549-3.313,7.206-5.35,1.673-2.037.928-3.147,3.512-1.855,2.584,1.309,3.876.563,3.876-2.021s.563-3.512,3.893-3.876c3.313-.381-.066-2.071-.066-5.218a18.416,18.416,0,0,0-.348-2.816c6.262,1.11,3.346-.712,7.7-2.452,4.34-1.739,9.558-13.484,11.745-16.532,2.17-3.048,3.031-8.912,4.34-13.269,1.309-4.34,6.1-4.34,6.891-8.912.8-4.555.729-6.079,2.236-8.266,1.524-2.17.663-5.649,1.093-8.034.315-1.739-3.346-1.491-5.384-1.209.861-.745.878-3.048.944-6.527.1-4.738,1.01-12.225-3-17.691s-17.41-26.968-17.128-31.258c.265-4.274,1.358-21.4-.182-23.688-1.557-2.269-19.149-23.323-24.152-25.427-5.019-2.087-7.653,1.822-12.126-2.816-4.456-4.655-6.924-5.1-11.844-4.555S7.233,80.227,6.405,74.578c-.812-5.649-3.909-8.2-4.373-10.933C1.668,61.409-.287,56.158,2.38,49.1c0,0,12.854,1.226,18.7-3.23,5.864-4.473,4.605-7.255,14.494-4.323C45.482,44.479,47.288,46.567,51.329,46s18.685.514,23.97,3.247c5.3,2.75,12.407,3.578,16.863.663.3-.2.629-.431,1.01-.712,5.433-4.092,19.464-17.1,29.237-16.582,5.433.3,12.888.663,19.729.646,0,0,.149,7.371.149,10.734,0,3.346-5.8,5.384-6.046,12.092s6.46,8.084,8.266,9.31a36.158,36.158,0,0,0,9.806,3.843c2.7.5,1.226,4.423.895,6.626s1.143,4.257,7.438,6.212,7.52,2.949,7.272,6.046c-.248,3.114,1.64,10.138-3.263,8.5-4.9-1.623-5.963,6.46.812,5.9,6.792-.58,14.395,2.037,17.161,3.263,2.783,1.226-.646,5.483-1.623,6.775-.994,1.309.48,8.034-1.888,8.1-4.738-.5-6.046,1.723-5.317,3.677.745,1.955,1.888,2.037-.646,7.935-2.534,5.881-4.009,3.18-9.392,1.541-5.4-1.623-9.409.994-10.718,6.792s-4.009,6.775-6.775,9.31c-2.783,2.534,1.541,5.566,2.452,7.206.894,1.623,4.323,4.572,3.992,8.829-.315,4.241.033,5.085,2.1,6.295,2.087,1.209,10.4-.514,14.047,0s2.071,12.308,5.2,14.146c3.114,1.855,7.454-1.143,8.15-2.882.679-1.739-1.044-3.3,4.158-.861,5.135,2.385,5.168,6.228,5.168,6.328-3.644,2.65-9.144,9.541-8.879,13.02.331,4.141.331,6.858-10.2,14.03-10.519,7.189-5.731,5.914-2.236,6.228,3.512.315,8.133,5.582,7.5,12.755-.646,7.173,11.794,4.787,16.9,5.582,5.119.8.48,12.921-1.9,18.5S203.015,267.543,202.849,271.7Z" transform="translate(140.656 2545.405)" fill="#f2f2f2" stroke="#fff" stroke-miterlimit="10" stroke-width="2"/>
    <path id="Path_323" data-name="Path 323" d="M463.929,184.169c-.4,5.152-3.164,14.66-12.672,15.853s-15.455,6.742-29.32,9.508c-13.865,2.783-12.291,14.66-13.865,19.812-1.292,4.174-8.564,3.412-8.316,11-14.643-6.262-12.043-12.159-20.325-12.888s-12.507-6.808-14.527-10.486c-2.038-3.677-6.808-7.554-11.049-5.715s-6.079,1.839-10.867-1.474c-4.771-3.313-5.516.2-8.266,5.168-2.766,4.969-19.331,3.114-19.331,3.114s.182,4.058,0,6.626c-.182,2.584.182,10.121-2.021,11.413-2.22,1.292-7.007,1.474-12.159,7.918s-4.969,4.423-7.487,4.042c-2.518-.364-7.968-7.719-10.353-6.626-7.007,1.855-7.007-1.275-9.028-5.152-2.021-3.86-2.2-4.042-6.063-4.042-3.876-.017-4.058,1.474-4.787,4.29-.745,2.8-6.99,3.81-9.575,1.226-2.584-2.568-4.241-.911-4.423,3.081-.182,4.009-3.5,3.909-7.9.977-2.75-1.839-4.125-.8-4.771.977-2.021-2.634-6.792-5.516-10.4-7.587a8.995,8.995,0,0,0,3.959-7.024c.464-5.168,4.274-5.384,4.274-7.636,0-2.236-7.819-7.173-8.282-10.983s1.342-7.852-4.042-9.641c-5.384-1.806-9.21-2.915-5.168-7.189,4.042-4.257,10.552-3.363,12.109-6.278,1.574-2.915,1.574-4.489,7.4-4.7,5.831-.232,12.556,2.236,14.809-4.489,2.236-6.725.895-8.962,2.021-12.341,1.11-3.363,0-4.7,1.789-7.388,1.789-2.7-3.595-1.126-3.363-5.616.215-4.489,4.655-5.6,6.692-7.852,2.054-2.236,2.236-3.959.845-9.79-.547-2.866-2.319-2.137-2.319-3.893,0-1.772,1.524-3.479-1.888-3.114-3.4.364-12.772,4.688-16.051,1.772-3.3-2.915-2.684-6.626-4.39-9.194-1.706-2.551-8.448-4.8-8.4-7.653.066-2.866,4.092-4.754,8.034-6.46,3.959-1.69.282-3.628,2.17-7.7,1.905-4.075,7.5.861,10.121,3.412s6.626,6.477,12.821-2.253c6.179-8.73,5.748-6.046,9.376-5.168,1.391.58.878-4.439,1.54-4.953a6.688,6.688,0,0,1,3.992-2.187c2.269-.215,1.673-2.253,0-4.207-1.673-1.971-3.346-.083-3.412-1.607-.083-1.524-.149-5.963-1.673-6.328-1.54-.364-1.971-3-8.15-1.458-6.2,1.524-4.439-4.8-3.363-5.616,1.093-.8,3.86-2.9,2.187-4.572-1.673-1.69-5.235-9.326-4.141-12.738,1.093-3.429,4.721-4.224,3.5-8.663-1.242-4.439-5.566-3.976-5.781-5.731,3.379-1.541,5.3-3.711,3.512-5.748-4.042-4.605-20.209-11.844-13.931-15.753,6.262-3.893,7.388-4.738,11.711-2.369,4.307,2.369,17.973,11.016,27.862,4.887,7.587-4.688,10.452-8.813,17.493-14.246-2.634,8.4.944,14.71,5.036,19.282,4.075,4.555,0,13.2,0,13.2,1.922,14.412,12.01,7.454,15.836,4.572,3.843-2.882,13.451,1.193,25.46,12.473,12.01,11.3,5.533,15.372,0,18.735-5.516,3.363-29.767,1.209-33.13,2.4-3.363,1.209,2.882,19.7,5.765,21.866,8.63,5.516,10.552-1.69,11.281-6.013.712-4.323,3.363-7.438,4.323-4.8.961,2.65,6.245,10.817,10.568,11.778s7.918,8.4,10.8,11.761,14.892-.48,18.735,0,5.284,6.477,13.683,7.438c8.415.961,11.1-6.957,14.892-7.918,18.023-2.882,15.14,3.363,10.088,15.124-5.036,11.778,9.127,11.778,12.738,12.258,3.595.48,13.8,16,13.8,16s7.935,14.66,11.894,11.1c11.1-5.549,14.263,5.152,14.66,7.918.4,2.783-2.385,9.111-2.783,14.262" transform="translate(280.467 2525.794)" fill="#cfd3b8"/>
    <g id="Component_9_1" data-name="Component 9 – 1" transform="translate(495.943 2528.527)">
      <path id="Path_324" data-name="Path 324" d="M463.929,184.169c-.4,5.152-3.164,14.66-12.672,15.853s-15.455,6.742-29.32,9.508c-13.865,2.783-12.291,14.66-13.865,19.812-1.292,4.174-8.564,3.412-8.316,11-14.643-6.262-12.043-12.159-20.325-12.888s-12.507-6.808-14.527-10.486c-2.038-3.677-6.808-7.554-11.049-5.715s-6.079,1.839-10.867-1.474c-4.771-3.313-5.516.2-8.266,5.168-2.766,4.969-19.331,3.114-19.331,3.114s.182,4.058,0,6.626c-.182,2.584.182,10.121-2.021,11.413-2.22,1.292-7.007,1.474-12.159,7.918s-4.969,4.423-7.487,4.042c-2.518-.364-7.968-7.719-10.353-6.626-7.007,1.855-7.007-1.275-9.028-5.152-2.021-3.86-2.2-4.042-6.063-4.042-3.876-.017-4.058,1.474-4.787,4.29-.745,2.8-6.99,3.81-9.575,1.226-2.584-2.568-4.241-.911-4.423,3.081-.182,4.009-3.5,3.909-7.9.977-2.75-1.839-4.125-.8-4.771.977-2.021-2.634-6.792-5.516-10.4-7.587a8.995,8.995,0,0,0,3.959-7.024c.464-5.168,4.274-5.384,4.274-7.636,0-2.236-7.819-7.173-8.282-10.983s1.342-7.852-4.042-9.641c-5.384-1.806-9.21-2.915-5.168-7.189,4.042-4.257,10.552-3.363,12.109-6.278,1.574-2.915,1.574-4.489,7.4-4.7,5.831-.232,12.556,2.236,14.809-4.489,2.236-6.725.895-8.962,2.021-12.341,1.11-3.363,0-4.7,1.789-7.388,1.789-2.7-3.595-1.126-3.363-5.616.215-4.489,4.655-5.6,6.692-7.852,2.054-2.236,2.236-3.959.845-9.79-.547-2.866-2.319-2.137-2.319-3.893,0-1.772,1.524-3.479-1.888-3.114-3.4.364-12.772,4.688-16.051,1.772-3.3-2.915-2.684-6.626-4.39-9.194-1.706-2.551-8.448-4.8-8.4-7.653.066-2.866,4.092-4.754,8.034-6.46,3.959-1.69.282-3.628,2.17-7.7,1.905-4.075,7.5.861,10.121,3.412s6.626,6.477,12.821-2.253c6.179-8.73,5.748-6.046,9.376-5.168,1.391.58.878-4.439,1.54-4.953a6.688,6.688,0,0,1,3.992-2.187c2.269-.215,1.673-2.253,0-4.207-1.673-1.971-3.346-.083-3.412-1.607-.083-1.524-.149-5.963-1.673-6.328-1.54-.364-1.971-3-8.15-1.458-6.2,1.524-4.439-4.8-3.363-5.616,1.093-.8,3.86-2.9,2.187-4.572-1.673-1.69-5.235-9.326-4.141-12.738,1.093-3.429,4.721-4.224,3.5-8.663-1.242-4.439-5.566-3.976-5.781-5.731,3.379-1.541,5.3-3.711,3.512-5.748-4.042-4.605-20.209-11.844-13.931-15.753,6.262-3.893,7.388-4.738,11.711-2.369,4.307,2.369,17.973,11.016,27.862,4.887,7.587-4.688,10.452-8.813,17.493-14.246-2.634,8.4.944,14.71,5.036,19.282,4.075,4.555,0,13.2,0,13.2,1.922,14.412,12.01,7.454,15.836,4.572,3.843-2.882,13.451,1.193,25.46,12.473,12.01,11.3,5.533,15.372,0,18.735-5.516,3.363-29.767,1.209-33.13,2.4-3.363,1.209,2.882,19.7,5.765,21.866,8.63,5.516,10.552-1.69,11.281-6.013.712-4.323,3.363-7.438,4.323-4.8.961,2.65,6.245,10.817,10.568,11.778s7.918,8.4,10.8,11.761,14.892-.48,18.735,0,5.284,6.477,13.683,7.438c8.415.961,11.1-6.957,14.892-7.918,18.023-2.882,15.14,3.363,10.088,15.124-5.036,11.778,9.127,11.778,12.738,12.258,3.595.48,13.8,16,13.8,16s7.935,14.66,11.894,11.1c11.1-5.549,14.263,5.152,14.66,7.918C467.11,172.69,464.327,179.017,463.929,184.169Z" transform="translate(-215.476 -2.733)" fill="none" stroke="#fff" stroke-miterlimit="10" stroke-width="2"/>
    </g>
    <path id="Path_325" data-name="Path 325" d="M591.062,478.348c.058-.007.114-.01.172-.017l-.171.022,0,0" transform="translate(526.006 2836.022)" fill="#747474"/>
    <path id="Path_326" data-name="Path 326" d="M591.062,478.348c.058-.007.114-.01.172-.017l-.171.022Z" transform="translate(526.006 2836.022)" fill="none" stroke="#757679" stroke-miterlimit="10" stroke-width="1"/>
    <path id="Path_327" data-name="Path 327" d="M361.682,76.916A6.688,6.688,0,0,0,357.69,79.1c-.663.514-.149,5.533-1.541,4.953-3.628-.878-3.2-3.561-9.376,5.168-6.2,8.73-10.2,4.8-12.821,2.253s-8.216-7.487-10.121-3.412c-1.888,4.075,1.789,6.013-2.17,7.7-3.942,1.706-7.968,3.595-8.034,6.46-.05,2.849,6.692,5.1,8.4,7.653,1.706,2.568,1.093,6.278,4.39,9.194,3.28,2.915,12.656-1.408,16.051-1.772,3.412-.364,1.888,1.342,1.888,3.114,0,1.756,1.772,1.027,2.319,3.893,1.391,5.831,1.209,7.554-.845,9.79-2.038,2.253-6.477,3.363-6.692,7.852-.232,4.489,5.152,2.915,3.363,5.616-1.789,2.684-.679,4.025-1.789,7.388-1.126,3.379.215,5.616-2.021,12.341-2.253,6.725-8.978,4.257-14.809,4.489-5.831.215-5.831,1.789-7.4,4.7-1.557,2.915-8.067,2.021-12.109,6.278-4.042,4.274-.215,5.384,5.168,7.189,5.384,1.789,3.578,5.831,4.042,9.641s8.282,8.746,8.282,10.983c0,2.253-3.81,2.468-4.274,7.636a8.995,8.995,0,0,1-3.959,7.024c-1.044-.6-1.988-1.126-2.733-1.557-3.379-1.955-4.158.911-8.2,1.69-4.025.779-8.051-1.822-10.519-3.1-2.468-1.292-8.067-1.59-11.049-1.458-3,.133-3.131-1.425-5.6-1.69s-6.759-3.512-8.962-4.025c-2.22-.53-6.112-3.909-8.581-4.29-2.468-.4-8.183,4.936-9.873,6.112-1.69,1.16-3.909-4.555-7.935-7.421-4.025-2.849-12.871,3.777-16.383,6.51s-11.711,1.69-11.711,1.69c1.607-4.787-2.551-10.37-5.251-11.049a40.371,40.371,0,0,1-10.055-3.777c-2.866-1.756-3.992-2.087-7.819-2.236-3.826-.166-9.724-3.512-12.109-3.677-2.4-.149-7.5-.464-7.338,3.2.149,3.661-.331,4.473-7.653,5.268-7.338.8-9.26-.166-11.016-5.914-1.756-5.731-5.9-2.866-9.094-1.9a6.182,6.182,0,0,0-1.806,1.01c0-.1-.033-3.942-5.168-6.328-5.2-2.435-3.479-.878-4.158.861-.7,1.739-5.036,4.738-8.15,2.882-3.131-1.839-1.557-13.633-5.2-14.146s-11.96,1.209-14.047,0c-2.071-1.209-2.418-2.054-2.1-6.295.331-4.257-3.1-7.206-3.992-8.829-.911-1.64-5.235-4.671-2.452-7.206,2.766-2.534,5.466-3.512,6.775-9.31s5.317-8.415,10.718-6.792c5.384,1.64,6.858,4.34,9.392-1.541,2.534-5.9,1.391-5.98.646-7.935-.729-1.955.58-4.174,5.317-3.677,2.369-.066.894-6.792,1.888-8.1.977-1.292,4.406-5.549,1.623-6.775-2.766-1.226-10.37-3.843-17.161-3.263-6.775.563-5.715-7.521-.812-5.9,4.9,1.64,3.015-5.384,3.263-8.5.248-3.1-.977-4.092-7.272-6.046s-7.769-4.009-7.438-6.212,1.806-6.129-.895-6.626a36.158,36.158,0,0,1-9.806-3.843c-1.806-1.226-8.514-2.6-8.266-9.31s6.046-8.746,6.046-12.092c0-3.363-.149-10.734-.149-10.734,6.361,0,12.175-.331,15.389-1.342,6.692-2.087,11.3-12.258,23.29-8.912C139.2,36,136.7,40.506,145.609,31.975c8.929-8.514,5.3-14.925,11.3-13.964,5.98.977,13.931,3.777,17.145,7.819,3.2,4.042,7.52,7.106,13.517,5.847,5.98-1.259,7.8-2.65,10.452-6s6.411-2.65,11.844.149c5.433,2.783,8.084,10.022,15.886,10.022s14.643-1.11,19.1-6.543,5.152-2.236,8.084,3.065c2.915,5.3,2.915,4.605,6.692,4.605,3.76,0,4.738-3.628,6.957-7.537,2.236-3.893,4.605-11.695,13.8-8.779,9.21,2.932,8.929,6.278,20.623,6.278,11.711,0,16.88-2.369,24.682.414,4.357,1.557,10.916.6,15.157-1.358.215,1.756,4.539,1.292,5.781,5.731,1.226,4.439-2.4,5.235-3.5,8.663-1.093,3.412,2.468,11.049,4.141,12.738,1.673,1.673-1.093,3.777-2.187,4.572-1.077.812-2.833,7.14,3.363,5.616,6.179-1.541,6.609,1.093,8.15,1.458,1.524.364,1.59,4.8,1.673,6.328.066,1.524,1.739-.364,3.412,1.607,1.673,1.955,2.269,3.992,0,4.208" transform="translate(194.251 2535.761)" fill="#f2f2f2"/>
    <path id="Path_328" data-name="Path 328" d="M361.682,76.916A6.688,6.688,0,0,0,357.69,79.1c-.663.514-.149,5.533-1.541,4.953-3.628-.878-3.2-3.561-9.376,5.168-6.2,8.73-10.2,4.8-12.821,2.253s-8.216-7.487-10.121-3.412c-1.888,4.075,1.789,6.013-2.17,7.7-3.942,1.706-7.968,3.595-8.034,6.46-.05,2.849,6.692,5.1,8.4,7.653,1.706,2.568,1.093,6.278,4.39,9.194,3.28,2.915,12.656-1.408,16.051-1.772,3.412-.364,1.888,1.342,1.888,3.114,0,1.756,1.772,1.027,2.319,3.893,1.391,5.831,1.209,7.554-.845,9.79-2.038,2.253-6.477,3.363-6.692,7.852-.232,4.489,5.152,2.915,3.363,5.616-1.789,2.684-.679,4.025-1.789,7.388-1.126,3.379.215,5.616-2.021,12.341-2.253,6.725-8.978,4.257-14.809,4.489-5.831.215-5.831,1.789-7.4,4.7-1.557,2.915-8.067,2.021-12.109,6.278-4.042,4.274-.215,5.384,5.168,7.189,5.384,1.789,3.578,5.831,4.042,9.641s8.282,8.746,8.282,10.983c0,2.253-3.81,2.468-4.274,7.636a8.995,8.995,0,0,1-3.959,7.024c-1.044-.6-1.988-1.126-2.733-1.557-3.379-1.955-4.158.911-8.2,1.69-4.025.779-8.051-1.822-10.519-3.1-2.468-1.292-8.067-1.59-11.049-1.458-3,.133-3.131-1.425-5.6-1.69s-6.759-3.512-8.962-4.025c-2.22-.53-6.112-3.909-8.581-4.29-2.468-.4-8.183,4.936-9.873,6.112-1.69,1.16-3.909-4.555-7.935-7.421-4.025-2.849-12.871,3.777-16.383,6.51s-11.711,1.69-11.711,1.69c1.607-4.787-2.551-10.37-5.251-11.049a40.371,40.371,0,0,1-10.055-3.777c-2.866-1.756-3.992-2.087-7.819-2.236-3.826-.166-9.724-3.512-12.109-3.677-2.4-.149-7.5-.464-7.338,3.2.149,3.661-.331,4.473-7.653,5.268-7.338.8-9.26-.166-11.016-5.914-1.756-5.731-5.9-2.866-9.094-1.9a6.182,6.182,0,0,0-1.806,1.01c0-.1-.033-3.942-5.168-6.328-5.2-2.435-3.479-.878-4.158.861-.7,1.739-5.036,4.738-8.15,2.882-3.131-1.839-1.557-13.633-5.2-14.146s-11.96,1.209-14.047,0c-2.071-1.209-2.418-2.054-2.1-6.295.331-4.257-3.1-7.206-3.992-8.829-.911-1.64-5.235-4.671-2.452-7.206,2.766-2.534,5.466-3.512,6.775-9.31s5.317-8.415,10.718-6.792c5.384,1.64,6.858,4.34,9.392-1.541,2.534-5.9,1.391-5.98.646-7.935-.729-1.955.58-4.174,5.317-3.677,2.369-.066.894-6.792,1.888-8.1.977-1.292,4.406-5.549,1.623-6.775-2.766-1.226-10.37-3.843-17.161-3.263-6.775.563-5.715-7.521-.812-5.9,4.9,1.64,3.015-5.384,3.263-8.5.248-3.1-.977-4.092-7.272-6.046s-7.769-4.009-7.438-6.212,1.806-6.129-.895-6.626a36.158,36.158,0,0,1-9.806-3.843c-1.806-1.226-8.514-2.6-8.266-9.31s6.046-8.746,6.046-12.092c0-3.363-.149-10.734-.149-10.734,6.361,0,12.175-.331,15.389-1.342,6.692-2.087,11.3-12.258,23.29-8.912C139.2,36,136.7,40.506,145.609,31.975c8.929-8.514,5.3-14.925,11.3-13.964,5.98.977,13.931,3.777,17.145,7.819,3.2,4.042,7.52,7.106,13.517,5.847,5.98-1.259,7.8-2.65,10.452-6s6.411-2.65,11.844.149c5.433,2.783,8.084,10.022,15.886,10.022s14.643-1.11,19.1-6.543,5.152-2.236,8.084,3.065c2.915,5.3,2.915,4.605,6.692,4.605,3.76,0,4.738-3.628,6.957-7.537,2.236-3.893,4.605-11.695,13.8-8.779,9.21,2.932,8.929,6.278,20.623,6.278,11.711,0,16.88-2.369,24.682.414,4.357,1.557,10.916.6,15.157-1.358.215,1.756,4.539,1.292,5.781,5.731,1.226,4.439-2.4,5.235-3.5,8.663-1.093,3.412,2.468,11.049,4.141,12.738,1.673,1.673-1.093,3.777-2.187,4.572-1.077.812-2.833,7.14,3.363,5.616,6.179-1.541,6.609,1.093,8.15,1.458,1.524.364,1.59,4.8,1.673,6.328.066,1.524,1.739-.364,3.412,1.607C363.356,74.663,363.952,76.7,361.682,76.916Z" transform="translate(194.251 2535.761)" fill="none" stroke="#fff" stroke-miterlimit="10" stroke-width="2"/>
    <rect id="Rectangle_125" data-name="Rectangle 125" width="976.864" height="915" transform="translate(140 2524)" fill="none"/>
    <text id="Tavush" transform="translate(574.438 2677.029)" fill="#474749" font-size="15" font-family="Poppins-Regular, Poppins"><tspan x="0" y="0">Tavush</tspan></text>
    <text id="Lori" transform="translate(403.047 2664.339)" fill="#474749" font-size="18" font-family="Poppins-Regular, Poppins"><tspan x="0" y="0">Lori</tspan></text>
    <text id="Shirak" transform="translate(232.965 2671.193)" fill="#474749" font-size="17" font-family="Poppins-Regular, Poppins"><tspan x="0" y="0">Shirak</tspan></text>
    <g id="Group_1669" data-name="Group 1669" transform="translate(140 2524)">
      <g id="Group_1668" data-name="Group 1668" clip-path="url(#clip-path)">
        <g id="Component_13_1" data-name="Component 13 – 1" transform="translate(446.736 481.981)">
          <path id="Path_329" data-name="Path 329" d="M489.951,348.712c-.331-.264-7.472-7.57-13.291-.248-6,7.587-6.232,12.876-11.985,12.645-5.736-.231-2.513,6.43-5.5,9.884-2.992,3.438-11.952,8.727-10.348,14.016,1.62,5.273,8.513,9.636,9.191,12.628.694,2.992,3.686,4.826-.909,11.025s-.926,8.083-.463,15.983c.463,7.917,1.141,9.752-3.9,11.587-4.43,1.6,3.207,14.347,5.141,17.454-.231.149-.479.314-.727.479s-.512.331-.793.5c-.81.5-1.7.992-2.645,1.488-.314.165-.628.331-.942.479a36.81,36.81,0,0,1-4.943,2.05,7.3,7.3,0,0,1-.793.248,11.112,11.112,0,0,1-4.976.5c-5.29-1.074-6.348-7.438-20.134,4.926-2.827,6.364-6.712,2.116-12,4.942-5.306,2.826-18.944,19.785-26.615,14.843-7.654-4.942-7.654-15.19-17.9-15.19s-21.192,0-22.961-14.479c-1.769-14.5-6.711-16.959-14.845-14.843-8.117,2.116-3.538,3.884-12.365,11.653s-13.076-.347-12.712-5.653c.347-5.289,3.835-28.248-.033-32.5-3.852-4.231-14.811-15.537-22.234-28.264-3.223-5.537-6.53-7.322-9.571-7.4,0,0-2.017-15.669,2.579-17.967s6.893.281,6.315-7.19c-.512-6.744-1.025-6.463,2.893-5.934.43.066.893.132,1.422.182,5.455.579,3.736-4.016,6.893-4.016,3.174,0,5.174,1.719,5.753-4.6s1.719-3.455,5.455-6.612,4.6-4.6,3.455-11.785c0,0,.579-2,6.315-1.719,5.753.3,3.174-3.157,6.612-2.876,3.455.3,23.474,1.223,26.9-1.074,3.438-2.281,5.852-2.711,7.72,0,1.851,2.711,2.281,2.711,5.7.727,3.422-2,2.562-1.719,5.422.132,2.843,1.851,5.422.711,10.844-2s5.439-.562,8.348-2.843c2.926-2.281,5.058-8.992,12.481-6.43,7.422,2.578,2.86-3.422,6.711-10.264,2.281-2.992,5.422-.711,9.125-1.421,3.7-.727.281,2.562,2,4.413a9.476,9.476,0,0,0,9.588,2.86c-.331,6.5,1.686,7.868,4.81,9.107,3.488,1.405,37.938,2.231,44.352,6.694,6.43,4.463,8.381,5.173,6.695,10.331-1.67,5.157,0,7.107,4.331,10.182,4.315,3.074,3.356,7.917,4.447,9.884l.017.017c.413.727,1.223,2.066,2.083,3.455" transform="translate(-270.246 -291.6)" fill="#cfd3b8"/>
        </g>
        <path id="Path_330" data-name="Path 330" d="M489.951,348.712c-.331-.264-7.472-7.57-13.291-.248-6,7.587-6.232,12.876-11.985,12.645-5.736-.231-2.513,6.43-5.5,9.884-2.992,3.438-11.952,8.727-10.348,14.016,1.62,5.273,8.513,9.636,9.191,12.628.694,2.992,3.686,4.826-.909,11.025s-.926,8.083-.463,15.983c.463,7.917,1.141,9.752-3.9,11.587-4.43,1.6,3.207,14.347,5.141,17.454-.231.149-.479.314-.727.479s-.512.331-.793.5c-.81.5-1.7.992-2.645,1.488-.314.165-.628.331-.942.479a36.81,36.81,0,0,1-4.943,2.05,7.3,7.3,0,0,1-.793.248,11.112,11.112,0,0,1-4.976.5c-5.29-1.074-6.348-7.438-20.134,4.926-2.827,6.364-6.712,2.116-12,4.942-5.306,2.826-18.944,19.785-26.615,14.843-7.654-4.942-7.654-15.19-17.9-15.19s-21.192,0-22.961-14.479c-1.769-14.5-6.711-16.959-14.845-14.843-8.117,2.116-3.538,3.884-12.365,11.653s-13.076-.347-12.712-5.653c.347-5.289,3.835-28.248-.033-32.5-3.852-4.231-14.811-15.537-22.234-28.264-3.223-5.537-6.53-7.322-9.571-7.4,0,0-2.017-15.669,2.579-17.967s6.893.281,6.315-7.19c-.512-6.744-1.025-6.463,2.893-5.934.43.066.893.132,1.422.182,5.455.579,3.736-4.016,6.893-4.016,3.174,0,5.174,1.719,5.753-4.6s1.719-3.455,5.455-6.612,4.6-4.6,3.455-11.785c0,0,.579-2,6.315-1.719,5.753.3,3.174-3.157,6.612-2.876,3.455.3,23.474,1.223,26.9-1.074,3.438-2.281,5.852-2.711,7.72,0,1.851,2.711,2.281,2.711,5.7.727,3.422-2,2.562-1.719,5.422.132,2.843,1.851,5.422.711,10.844-2s5.439-.562,8.348-2.843c2.926-2.281,5.058-8.992,12.481-6.43,7.422,2.578,2.86-3.422,6.711-10.264,2.281-2.992,5.422-.711,9.125-1.421,3.7-.727.281,2.562,2,4.413a9.476,9.476,0,0,0,9.588,2.86c-.331,6.5,1.686,7.868,4.81,9.107,3.488,1.405,37.938,2.231,44.352,6.694,6.43,4.463,8.381,5.173,6.695,10.331-1.67,5.157,0,7.107,4.331,10.182,4.315,3.074,3.356,7.917,4.447,9.884l.017.017C488.281,345.985,489.091,347.324,489.951,348.712Z" transform="translate(176.49 190.381)" fill="none" stroke="#fff" stroke-miterlimit="10" stroke-width="2"/>
        <path id="Path_331" data-name="Path 331" d="M384.2,390.341s-.165-.248-.446-.678" transform="translate(250.618 254.405)" fill="none" stroke="#8f9093" stroke-miterlimit="10" stroke-width="1"/>
        <path id="Path_332" data-name="Path 332" d="M64.325,141.366c-1.5,2.182-1.438,3.7-2.232,8.248-.793,4.562-5.571,4.562-6.877,8.893-1.306,4.347-2.166,10.2-4.331,13.24-2.182,3.041-7.389,14.76-11.72,16.5-4.348,1.736-1.438,3.554-7.687,2.446-.347-2.215-.446-4.744,2.761-8.793,3.67-1.8,3.752-4.694,2.628-7.025-1.108-2.347-.182-15.058-1.025-16.083s-.645-1.686-.645-3.174c0-1.5-2.909-2.43-2.529-6.826s6.265-3.273,8.7-2.248c2.43,1.041-.479,3.835.562,6.264,1.025,2.43,4.48,7.388,5.224,3.455.76-3.917,3.091-6.248,3.736-9.983.661-3.752,2.149-4.5,3.372-10.281,1.207-5.8,2.331-4.215,4.48-3.653a1.325,1.325,0,0,0,1.306-.2c2.033-.281,5.687-.529,5.372,1.207-.43,2.38.43,5.851-1.091,8.016" transform="translate(20.449 85.993)" fill="#f2f2f2" stroke="#fff" stroke-width="2"/>
        <path id="Path_333" data-name="Path 333" d="M64.325,141.366c-1.5,2.182-1.438,3.7-2.232,8.248-.793,4.562-5.571,4.562-6.877,8.893-1.306,4.347-2.166,10.2-4.331,13.24-2.182,3.041-7.389,14.76-11.72,16.5-4.348,1.736-1.438,3.554-7.687,2.446-.347-2.215-.446-4.744,2.761-8.793,3.67-1.8,3.752-4.694,2.628-7.025-1.108-2.347-.182-15.058-1.025-16.083s-.645-1.686-.645-3.174c0-1.5-2.909-2.43-2.529-6.826s6.265-3.273,8.7-2.248c2.43,1.041-.479,3.835.562,6.264,1.025,2.43,4.48,7.388,5.224,3.455.76-3.917,3.091-6.248,3.736-9.983.661-3.752,2.149-4.5,3.372-10.281,1.207-5.8,2.331-4.215,4.48-3.653a1.325,1.325,0,0,0,1.306-.2c2.033-.281,5.687-.529,5.372,1.207C64.987,135.73,65.846,139.2,64.325,141.366Z" transform="translate(20.449 85.993)" fill="none" stroke="#fff" stroke-miterlimit="10" stroke-width="1"/>
        <line id="Line_93" data-name="Line 93" x1="0.017" transform="translate(44.109 330.202)" fill="#acd0ee"/>
        <line id="Line_94" data-name="Line 94" x1="0.017" transform="translate(44.109 330.202)" fill="none" stroke="#fff" stroke-miterlimit="10" stroke-width="1"/>
        <path id="Path_334" data-name="Path 334" d="M183.714,239.363s-.083.066-.231.2" transform="translate(119.828 156.276)" fill="#acd0ee"/>
        <path id="Path_335" data-name="Path 335" d="M183.714,239.363s-.083.066-.231.2" transform="translate(119.828 156.276)" fill="none" stroke="#fff" stroke-miterlimit="10" stroke-width="1"/>
        <line id="Line_95" data-name="Line 95" y1="0.017" transform="translate(275.787 426.449)" fill="#acd0ee"/>
        <line id="Line_96" data-name="Line 96" y1="0.017" transform="translate(275.787 426.449)" fill="none" stroke="#fff" stroke-miterlimit="10" stroke-width="1"/>
        <line id="Line_97" data-name="Line 97" y1="0.017" transform="translate(269.919 491.655)" fill="none" stroke="#8f9093" stroke-miterlimit="10" stroke-width="1"/>
        <path id="Path_336" data-name="Path 336" d="M169.963,269.36a.518.518,0,0,1,.149-.017s.017.017.017,0" transform="translate(110.998 175.85)" fill="#acd0ee"/>
        <path id="Path_337" data-name="Path 337" d="M169.963,269.36a.518.518,0,0,1,.149-.017s.017.017.017,0" transform="translate(110.998 175.85)" fill="none" stroke="#fff" stroke-miterlimit="10" stroke-width="1"/>
        <line id="Line_98" data-name="Line 98" y1="0.017" transform="translate(458.964 536.746)" fill="none" stroke="#a4a5a9" stroke-miterlimit="10" stroke-width="1"/>
        <path id="Path_338" data-name="Path 338" d="M197.206,264.319a2.619,2.619,0,0,0-.463-.5" transform="translate(128.487 172.246)" fill="#acd0ee"/>
        <path id="Path_339" data-name="Path 339" d="M197.206,264.319a2.619,2.619,0,0,0-.463-.5" transform="translate(128.487 172.246)" fill="none" stroke="#fff" stroke-miterlimit="10" stroke-width="1"/>
        <path id="Path_340" data-name="Path 340" d="M263.695,257.853a4.559,4.559,0,0,1-.182.727" transform="translate(172.093 168.348)" fill="#acd0ee"/>
        <path id="Path_341" data-name="Path 341" d="M263.695,257.853a4.559,4.559,0,0,1-.182.727" transform="translate(172.093 168.348)" fill="none" stroke="#fff" stroke-miterlimit="10" stroke-width="1"/>
        <path id="Path_342" data-name="Path 342" d="M222.1,143.073a.2.2,0,0,0-.05.033" transform="translate(145.016 93.41)" fill="#acd0ee"/>
        <path id="Path_343" data-name="Path 343" d="M222.1,143.073a.2.2,0,0,0-.05.033" transform="translate(145.016 93.41)" fill="none" stroke="#fff" stroke-miterlimit="10" stroke-width="1"/>
        <path id="Path_344" data-name="Path 344" d="M180.116,266.282h0a5.656,5.656,0,1,1,5.657-5.656,5.656,5.656,0,0,1-5.657,5.656" transform="translate(113.934 166.466)" fill="#414141"/>
      </g>
    </g>
    <text id="YEREVAN" transform="translate(444.929 2956.527)" fill="#1a1818" font-size="18" font-family="Poppins-Regular, Poppins"><tspan x="0" y="0">YEREVAN</tspan></text>
    <text id="Aragatsotn" transform="translate(249.518 2873.008)" fill="#474749" font-size="18" font-family="Poppins-Regular, Poppins"><tspan x="0" y="0">Aragatsotn</tspan></text>
    <text id="Kotayk" transform="translate(449.384 2876.717)" fill="#474749" font-size="18" font-family="Poppins-Regular, Poppins"><tspan x="0" y="0">Kotayk</tspan></text>
    <text id="Gegharkunik" transform="translate(675.698 2981.794)" fill="#474749" font-size="18" font-family="Poppins-Regular, Poppins"><tspan x="0" y="0">Gegharkunik</tspan></text>
    <text id="Armavir" transform="translate(249.855 2970.35)" fill="#474749" font-size="18" font-family="Poppins-Regular, Poppins"><tspan x="0" y="0">Armavir</tspan></text>
    <text id="Vayots_Dzor" data-name="Vayots Dzor" transform="translate(628.548 3099.856)" fill="#474749" font-size="18" font-family="Poppins-Regular, Poppins"><tspan x="0" y="0">Vayots Dzor</tspan></text>
    <text id="Syunik" transform="translate(885.642 3265.602)" fill="#474749" font-size="18" font-family="Poppins-Regular, Poppins"><tspan x="0" y="0" letter-spacing="-0.012em">S</tspan><tspan y="0">yunik</tspan></text>
    <text id="Ararat" transform="translate(488.685 3033.055)" fill="#474749" font-size="18" font-family="Poppins-Regular, Poppins"><tspan x="0" y="0">Ararat</tspan></text>
    <g id="Group_1671" data-name="Group 1671" transform="translate(816.664 3077.565)">
      <g id="Group_1672" data-name="Group 1672">
        <path id="Path_349" data-name="Path 349" d="M538.989,386.033a.689.689,0,0,1-.166.066" transform="translate(-324.953 -301.469)" fill="none" stroke="#898989" stroke-miterlimit="10" stroke-width="1"/>
        <path id="Path_350" data-name="Path 350" d="M409.779,334.983c-.033.017-.05.05-.066.066" transform="translate(-409.713 -334.983)" fill="none" stroke="#898989" stroke-miterlimit="10" stroke-width="1"/>
      </g>
    </g>
  </g>
</svg>
