<svg xmlns="http://www.w3.org/2000/svg" width="26.315" height="25.955" viewBox="0 0 26.315 25.955">
  <g id="Group_357" data-name="Group 357" transform="translate(0.426 0.384)">
    <g id="Group_358" data-name="Group 358" transform="translate(0 0)">
      <path id="Path_142" data-name="Path 142" d="M27.587,14.6s-4.122,3.683-4.02,12.571" transform="translate(-13.387 -8.292)" fill="none" stroke="#535446" stroke-linecap="round" stroke-linejoin="round" stroke-width="1.2"/>
      <path id="Path_143" data-name="Path 143" d="M.5,46.532s.682-10.063,8.187-6.14c0,0,3.667-4.264,7.5-.341,0,0,3.326-4.776,7.59.085a11.318,11.318,0,0,1,1.791,6.4Z" transform="translate(-0.284 -21.561)" fill="#fff" stroke="#535446" stroke-width="1.2"/>
      <path id="Path_145" data-name="Path 145" d="M18.5,22.831s4.42.654,3.82,4.577" transform="translate(-11.71 -13.62)" fill="none" stroke="#535446" stroke-linecap="round" stroke-linejoin="round" stroke-width="1.2"/>
      <path id="Path_146" data-name="Path 146" d="M27.847,9.469S25.7,3.695,33.234,1.585A2.169,2.169,0,0,0,34.56.5S36.023,10.059,27.847,9.469Z" transform="translate(-15.659 -0.284)" fill="none" stroke="#535446" stroke-linecap="round" stroke-linejoin="round" stroke-width="1.2"/>
      <path id="Path_147" data-name="Path 147" d="M1.886,9.072A.076.076,0,0,1,2,9.006a14.486,14.486,0,0,0,3.69.819c3.351.482,5.329,4,4.714,5.749,0,0-3.724,2.425-6.477-.837a5.931,5.931,0,0,1-.944-1.609A13.45,13.45,0,0,1,1.886,9.072Z" transform="translate(-1.071 -5.111)" fill="none" stroke="#535446" stroke-miterlimit="10" stroke-width="1.2"/>
    </g>
  </g>
</svg>
