<svg xmlns="http://www.w3.org/2000/svg" width="24" height="24" viewBox="0 0 24 24">
  <g id="Group_4" data-name="Group 4" transform="translate(-492 -252)">
    <path id="Vector" d="M.75,7A.755.755,0,0,1,0,6.25V.75A.755.755,0,0,1,.75,0,.755.755,0,0,1,1.5.75v5.5A.755.755,0,0,1,.75,7Z" transform="translate(503.25 254.25)" fill="#535446"/>
    <path id="Vector-2" data-name="Vector" d="M.75,7A.755.755,0,0,1,0,6.25V.75A.755.755,0,0,1,.75,0,.755.755,0,0,1,1.5.75v5.5A.755.755,0,0,1,.75,7Z" transform="translate(503.25 266.75)" fill="#535446"/>
    <path id="Vector-3" data-name="Vector" d="M5.5,4.243a.686.686,0,0,1-.37-.1L.373,1.393A.746.746,0,0,1,1.123.1l4.76,2.75a.745.745,0,0,1-.38,1.39Z" transform="translate(495.467 258.757)" fill="#535446"/>
    <path id="Vector-4" data-name="Vector" d="M5.5,4.243a.686.686,0,0,1-.37-.1L.373,1.393A.746.746,0,0,1,1.123.1l4.76,2.75a.745.745,0,0,1-.38,1.39Z" transform="translate(506.287 265.007)" fill="#535446"/>
    <path id="Vector-5" data-name="Vector" d="M4.25,8.49A4.266,4.266,0,0,1,.57,6.37,4.2,4.2,0,0,1,0,4.24,4.136,4.136,0,0,1,.57,2.12a4.254,4.254,0,0,1,7.36,0A4.2,4.2,0,0,1,8.5,4.25a4.136,4.136,0,0,1-.57,2.12A4.266,4.266,0,0,1,4.25,8.49Zm0-7A2.761,2.761,0,0,0,1.5,4.24a2.722,2.722,0,0,0,.37,1.38A2.75,2.75,0,0,0,7,4.25a2.722,2.722,0,0,0-.37-1.38A2.755,2.755,0,0,0,4.25,1.49Z" transform="translate(499.75 259.76)" fill="#535446"/>
    <path id="Vector-6" data-name="Vector" d="M.751,4.251a.735.735,0,0,1-.65-.38.746.746,0,0,1,.27-1.02L5.131.1a.746.746,0,1,1,.75,1.29l-4.76,2.75A.618.618,0,0,1,.751,4.251Z" transform="translate(506.279 258.749)" fill="#535446"/>
    <path id="Vector-7" data-name="Vector" d="M.751,4.251a.735.735,0,0,1-.65-.38.746.746,0,0,1,.27-1.02L5.131.1a.746.746,0,1,1,.75,1.29l-4.76,2.75A.618.618,0,0,1,.751,4.251Z" transform="translate(495.459 264.999)" fill="#535446"/>
    <path id="Vector-8" data-name="Vector" d="M0,0H24V24H0Z" transform="translate(492 252)" fill="none" opacity="0"/>
    <g id="Group_1673" data-name="Group 1673" transform="translate(510.75 256.75)">
      <path id="Vector-9" data-name="Vector" d="M2.25,4.5A2.258,2.258,0,0,1,.3,3.376,2.227,2.227,0,0,1,0,2.247,2.194,2.194,0,0,1,.3,1.124a2.251,2.251,0,0,1,3.9,0,2.227,2.227,0,0,1,.3,1.129,2.194,2.194,0,0,1-.3,1.124A2.258,2.258,0,0,1,2.25,4.5Z" fill="#535446"/>
      <circle id="Ellipse_6" data-name="Ellipse 6" cx="1.25" cy="1.25" r="1.25" transform="translate(1 1)" fill="#fff"/>
    </g>
    <g id="Group_1674" data-name="Group 1674" transform="translate(510.294 267)">
      <path id="Vector-10" data-name="Vector" d="M2.25,4.5A2.258,2.258,0,0,1,.3,3.376,2.227,2.227,0,0,1,0,2.247,2.194,2.194,0,0,1,.3,1.124a2.251,2.251,0,0,1,3.9,0,2.227,2.227,0,0,1,.3,1.129,2.194,2.194,0,0,1-.3,1.124A2.258,2.258,0,0,1,2.25,4.5Z" fill="#535446"/>
      <circle id="Ellipse_6-2" data-name="Ellipse 6" cx="1.25" cy="1.25" r="1.25" transform="translate(1 1)" fill="#fff"/>
    </g>
    <g id="Group_1675" data-name="Group 1675" transform="translate(501.787 271)">
      <path id="Vector-11" data-name="Vector" d="M2.25,4.5A2.258,2.258,0,0,1,.3,3.376,2.227,2.227,0,0,1,0,2.247,2.194,2.194,0,0,1,.3,1.124a2.251,2.251,0,0,1,3.9,0,2.227,2.227,0,0,1,.3,1.129,2.194,2.194,0,0,1-.3,1.124A2.258,2.258,0,0,1,2.25,4.5Z" fill="#535446"/>
      <circle id="Ellipse_6-3" data-name="Ellipse 6" cx="1.25" cy="1.25" r="1.25" transform="translate(1 1)" fill="#fff"/>
    </g>
    <g id="Group_1676" data-name="Group 1676" transform="translate(493.217 267)">
      <path id="Vector-12" data-name="Vector" d="M2.25,4.5A2.258,2.258,0,0,1,.3,3.376,2.227,2.227,0,0,1,0,2.247,2.194,2.194,0,0,1,.3,1.124a2.251,2.251,0,0,1,3.9,0,2.227,2.227,0,0,1,.3,1.129,2.194,2.194,0,0,1-.3,1.124A2.258,2.258,0,0,1,2.25,4.5Z" fill="#535446"/>
      <circle id="Ellipse_6-4" data-name="Ellipse 6" cx="1.25" cy="1.25" r="1.25" transform="translate(1 1)" fill="#fff"/>
    </g>
    <g id="Group_1677" data-name="Group 1677" transform="translate(493.217 256.507)">
      <path id="Vector-13" data-name="Vector" d="M2.25,4.5A2.258,2.258,0,0,1,.3,3.376,2.227,2.227,0,0,1,0,2.247,2.194,2.194,0,0,1,.3,1.124a2.251,2.251,0,0,1,3.9,0,2.227,2.227,0,0,1,.3,1.129,2.194,2.194,0,0,1-.3,1.124A2.258,2.258,0,0,1,2.25,4.5Z" fill="#535446"/>
      <circle id="Ellipse_6-5" data-name="Ellipse 6" cx="1.25" cy="1.25" r="1.25" transform="translate(1 1)" fill="#fff"/>
    </g>
    <g id="Group_1678" data-name="Group 1678" transform="translate(501.787 252.25)">
      <path id="Vector-14" data-name="Vector" d="M2.25,4.5A2.258,2.258,0,0,1,.3,3.376,2.227,2.227,0,0,1,0,2.247,2.194,2.194,0,0,1,.3,1.124a2.251,2.251,0,0,1,3.9,0,2.227,2.227,0,0,1,.3,1.129,2.194,2.194,0,0,1-.3,1.124A2.258,2.258,0,0,1,2.25,4.5Z" fill="#535446"/>
      <circle id="Ellipse_6-6" data-name="Ellipse 6" cx="1.25" cy="1.25" r="1.25" transform="translate(1 1)" fill="#fff"/>
    </g>
  </g>
</svg>
